<svg id="Layer_1" data-name="Layer 1" xmlns="http://www.w3.org/2000/svg" viewBox="0 0 1200 675.64"><defs><style>.cls-1{fill:#f8bc69;}.cls-2{fill:#1e4f53;}.cls-3{fill:#102b36;}.cls-4{fill:#f37021;}.cls-5{fill:#9d1c20;}.cls-6{fill:#b68850;}.cls-7{fill:#2e1218;}.cls-8{fill:#711411;}.cls-9{fill:#731512;}.cls-10{fill:#96403a;}.cls-11{fill:#732c2b;}.cls-12{fill:#750f2d;}.cls-13{fill:#010101;opacity:0.21;}</style></defs><rect class="cls-1" width="1200" height="675.64"/><rect class="cls-2" y="624.11" width="1200" height="51.53"/><path class="cls-3" d="M54.78,624.31a32.12,32.12,0,0,0,2.72-13c0-16.71-12.52-30.25-28-30.25s-28,13.54-28,30.25a32.13,32.13,0,0,0,2.73,13Z"/><rect class="cls-4" x="36.03" y="161.5" width="168.58" height="462.81"/><rect class="cls-4" x="204.62" y="282.37" width="166.99" height="341.94"/><polygon class="cls-5" points="287.32 624.31 204.62 624.31 204.62 282.37 242.79 282.37 287.32 624.31"/><rect class="cls-5" x="38.85" y="177.77" width="14.32" height="6.47" rx="1.13"/><rect class="cls-5" x="56.7" y="187.91" width="14.32" height="6.47" rx="1.13"/><rect class="cls-1" x="57.45" y="210.44" width="24.88" height="37.64" transform="translate(-0.92 0.28) rotate(-0.23)"/><rect class="cls-6" x="76.7" y="210.4" width="5.62" height="37.64" transform="translate(-0.92 0.32) rotate(-0.23)"/><rect class="cls-6" x="57.37" y="210.44" width="24.88" height="4.95" transform="translate(-0.85 0.28) rotate(-0.23)"/><path class="cls-7" d="M54.73,251.73l-.18-44.65L85.2,207l.17,44.65Zm1.41-43.06.17,41.47L83.78,250l-.17-41.47Z"/><path class="cls-7" d="M57.17,248.21,57,209.85l25.92-.1.16,38.36Zm1.44-36.77.14,35.18,22.74-.1-.14-35.17Z"/><rect class="cls-7" x="57.95" y="220.76" width="23.99" height="1.59" transform="translate(-0.86 0.27) rotate(-0.22)"/><rect class="cls-7" x="69.53" y="210.11" width="1.59" height="11.44" transform="translate(-0.88 0.29) rotate(-0.23)"/><rect class="cls-7" x="57.81" y="221.95" width="23.99" height="1.59" transform="translate(-0.87 0.27) rotate(-0.22)"/><rect class="cls-1" x="109.1" y="210.27" width="24.88" height="37.64" transform="translate(-0.92 0.49) rotate(-0.23)"/><rect class="cls-6" x="128.35" y="210.23" width="5.62" height="37.64" transform="translate(-0.92 0.53) rotate(-0.23)"/><rect class="cls-6" x="109.02" y="210.27" width="24.88" height="4.95" transform="translate(-0.85 0.49) rotate(-0.23)"/><path class="cls-7" d="M106.37,251.56l-.18-44.65,30.65-.12.18,44.65Zm1.42-43.07L108,250l27.47-.12-.17-41.47Z"/><path class="cls-7" d="M108.81,248l-.15-38.36,25.92-.1.16,38.36Zm1.45-36.77.14,35.17,22.74-.09L133,211.17Z"/><rect class="cls-7" x="109.6" y="220.59" width="23.99" height="1.59" transform="translate(-0.86 0.48) rotate(-0.22)"/><rect class="cls-7" x="121.18" y="209.94" width="1.59" height="11.44" transform="translate(-0.85 0.48) rotate(-0.23)"/><rect class="cls-7" x="109.46" y="221.78" width="23.99" height="1.59" transform="translate(-0.87 0.48) rotate(-0.22)"/><rect class="cls-1" x="160.74" y="210.1" width="24.88" height="37.64" transform="translate(-0.92 0.7) rotate(-0.23)"/><rect class="cls-6" x="180" y="210.06" width="5.62" height="37.64" transform="translate(-0.92 0.74) rotate(-0.23)"/><rect class="cls-6" x="160.67" y="210.1" width="24.88" height="4.95" transform="translate(-0.85 0.7) rotate(-0.23)"/><path class="cls-7" d="M158,251.39l-.18-44.65,30.65-.13.18,44.66Zm1.42-43.07.16,41.47,27.47-.11-.16-41.47Z"/><path class="cls-7" d="M160.46,247.87l-.15-38.36,25.92-.11.15,38.37Zm1.44-36.78.14,35.18,22.75-.09L184.64,211Z"/><rect class="cls-7" x="161.25" y="220.42" width="23.99" height="1.59" transform="translate(-0.86 0.68) rotate(-0.22)"/><rect class="cls-7" x="172.82" y="209.77" width="1.59" height="11.44" transform="translate(-0.88 0.71) rotate(-0.23)"/><rect class="cls-7" x="161.11" y="221.6" width="23.99" height="1.59" transform="translate(-0.87 0.68) rotate(-0.22)"/><rect class="cls-1" x="57.45" y="284.39" width="24.88" height="37.64" transform="translate(-1.22 0.28) rotate(-0.23)"/><rect class="cls-6" x="76.7" y="284.35" width="5.62" height="37.64" transform="translate(-1.22 0.32) rotate(-0.23)"/><rect class="cls-6" x="57.37" y="284.39" width="24.88" height="4.95" transform="translate(-1.15 0.28) rotate(-0.23)"/><path class="cls-7" d="M54.73,325.68,54.55,281l30.65-.13.17,44.66Zm1.41-43.07.17,41.47L83.78,324l-.17-41.47Z"/><path class="cls-7" d="M57.17,322.16,57,283.8l25.92-.11.16,38.36Zm1.44-36.78.14,35.18,22.74-.09-.14-35.18Z"/><rect class="cls-7" x="57.95" y="294.71" width="23.99" height="1.59" transform="translate(-1.15 0.28) rotate(-0.22)"/><rect class="cls-7" x="69.53" y="284.06" width="1.59" height="11.44" transform="translate(-1.18 0.29) rotate(-0.23)"/><rect class="cls-7" x="57.81" y="295.89" width="23.99" height="1.59" transform="translate(-1.16 0.27) rotate(-0.22)"/><rect class="cls-1" x="109.1" y="284.21" width="24.88" height="37.64" transform="translate(-1.22 0.49) rotate(-0.23)"/><rect class="cls-6" x="128.35" y="284.18" width="5.62" height="37.64" transform="translate(-1.21 0.53) rotate(-0.23)"/><rect class="cls-6" x="109.02" y="284.21" width="24.88" height="4.95" transform="translate(-1.15 0.49) rotate(-0.23)"/><path class="cls-7" d="M106.37,325.51l-.18-44.66,30.65-.12.18,44.65Zm1.42-43.07.17,41.47,27.47-.11-.17-41.47Z"/><path class="cls-7" d="M108.81,322l-.15-38.37,25.92-.1.16,38.36Zm1.45-36.78.14,35.18,22.74-.09L133,285.12Z"/><rect class="cls-7" x="109.6" y="294.53" width="23.99" height="1.59" transform="translate(-1.15 0.48) rotate(-0.22)"/><rect class="cls-7" x="121.18" y="283.89" width="1.59" height="11.44" transform="translate(-1.14 0.48) rotate(-0.23)"/><rect class="cls-7" x="109.46" y="295.72" width="23.99" height="1.59" transform="translate(-1.16 0.48) rotate(-0.22)"/><rect class="cls-1" x="160.74" y="284.04" width="24.88" height="37.64" transform="translate(-1.21 0.7) rotate(-0.23)"/><rect class="cls-6" x="180" y="284" width="5.62" height="37.64" transform="translate(-1.21 0.74) rotate(-0.23)"/><rect class="cls-6" x="160.67" y="284.04" width="24.88" height="4.95" transform="translate(-1.15 0.7) rotate(-0.23)"/><path class="cls-7" d="M158,325.33l-.18-44.65,30.65-.12.18,44.65Zm1.42-43.06.16,41.47,27.47-.11-.16-41.47Z"/><path class="cls-7" d="M160.46,321.81l-.15-38.36,25.92-.1.15,38.36ZM161.9,285l.14,35.18,22.75-.09L184.64,285Z"/><rect class="cls-7" x="161.25" y="294.36" width="23.99" height="1.59" transform="translate(-1.15 0.68) rotate(-0.22)"/><rect class="cls-7" x="172.82" y="283.71" width="1.59" height="11.44" transform="translate(-1.18 0.71) rotate(-0.23)"/><rect class="cls-7" x="161.11" y="295.55" width="23.99" height="1.59" transform="translate(-1.16 0.68) rotate(-0.22)"/><rect class="cls-1" x="57.45" y="357.55" width="24.88" height="37.64" transform="translate(-1.51 0.28) rotate(-0.23)"/><rect class="cls-6" x="76.7" y="357.51" width="5.62" height="37.64" transform="translate(-1.51 0.32) rotate(-0.23)"/><rect class="cls-6" x="57.37" y="357.55" width="24.88" height="4.95" transform="translate(-1.44 0.28) rotate(-0.23)"/><path class="cls-7" d="M54.73,398.84l-.18-44.65,30.65-.13.17,44.66Zm1.41-43.07.17,41.47,27.47-.11-.17-41.47Z"/><path class="cls-7" d="M57.17,395.32,57,357l25.92-.11.16,38.36Zm1.44-36.78.14,35.18,22.74-.09-.14-35.18Z"/><rect class="cls-7" x="57.95" y="367.87" width="23.99" height="1.59" transform="translate(-1.44 0.28) rotate(-0.22)"/><rect class="cls-7" x="69.53" y="357.22" width="1.59" height="11.44" transform="translate(-1.48 0.29) rotate(-0.23)"/><rect class="cls-7" x="57.81" y="369.05" width="23.99" height="1.59" transform="translate(-1.44 0.28) rotate(-0.22)"/><rect class="cls-1" x="109.1" y="357.37" width="24.88" height="37.64" transform="translate(-1.51 0.49) rotate(-0.23)"/><rect class="cls-6" x="128.35" y="357.34" width="5.62" height="37.64" transform="translate(-1.51 0.53) rotate(-0.23)"/><rect class="cls-6" x="109.02" y="357.37" width="24.88" height="4.95" transform="translate(-1.44 0.49) rotate(-0.23)"/><path class="cls-7" d="M106.37,398.67,106.19,354l30.65-.12.18,44.65Zm1.42-43.07.17,41.47,27.47-.11-.17-41.47Z"/><path class="cls-7" d="M108.81,395.15l-.15-38.37,25.92-.1.16,38.36Zm1.45-36.78.14,35.18,22.74-.09L133,358.28Z"/><rect class="cls-7" x="109.6" y="367.69" width="23.99" height="1.59" transform="translate(-1.44 0.48) rotate(-0.22)"/><rect class="cls-7" x="121.18" y="357.05" width="1.59" height="11.44" transform="translate(-1.43 0.48) rotate(-0.23)"/><rect class="cls-7" x="109.46" y="368.88" width="23.99" height="1.59" transform="translate(-1.44 0.48) rotate(-0.22)"/><rect class="cls-1" x="160.74" y="357.2" width="24.88" height="37.64" transform="translate(-1.51 0.7) rotate(-0.23)"/><rect class="cls-6" x="180" y="357.16" width="5.62" height="37.64" transform="translate(-1.51 0.74) rotate(-0.23)"/><rect class="cls-6" x="160.67" y="357.2" width="24.88" height="4.95" transform="translate(-1.44 0.7) rotate(-0.23)"/><path class="cls-7" d="M158,398.49l-.18-44.65,30.65-.12.18,44.65Zm1.42-43.06.16,41.47,27.47-.11-.16-41.47Z"/><path class="cls-7" d="M160.46,395l-.15-38.36,25.92-.1.15,38.36Zm1.44-36.77.14,35.18,22.75-.1-.15-35.18Z"/><rect class="cls-7" x="161.25" y="367.52" width="23.99" height="1.59" transform="translate(-1.44 0.68) rotate(-0.22)"/><rect class="cls-7" x="172.82" y="356.87" width="1.59" height="11.44" transform="translate(-1.48 0.71) rotate(-0.23)"/><rect class="cls-7" x="161.11" y="368.71" width="23.99" height="1.59" transform="translate(-1.44 0.68) rotate(-0.22)"/><rect class="cls-1" x="57.45" y="430.71" width="24.88" height="37.64" transform="translate(-1.8 0.28) rotate(-0.23)"/><rect class="cls-6" x="76.7" y="430.67" width="5.62" height="37.64" transform="translate(-1.8 0.32) rotate(-0.23)"/><rect class="cls-6" x="57.37" y="430.71" width="24.88" height="4.95" transform="translate(-1.74 0.28) rotate(-0.23)"/><path class="cls-7" d="M54.73,472l-.18-44.65,30.65-.13.17,44.66Zm1.41-43.07.17,41.47,27.47-.11-.17-41.47Z"/><path class="cls-7" d="M57.17,468.48,57,430.12,82.93,430l.16,38.36Zm1.44-36.78.14,35.18,22.74-.09-.14-35.18Z"/><rect class="cls-7" x="57.95" y="441.03" width="23.99" height="1.59" transform="translate(-1.73 0.28) rotate(-0.22)"/><rect class="cls-7" x="69.53" y="430.38" width="1.59" height="11.44" transform="translate(-1.78 0.29) rotate(-0.23)"/><rect class="cls-7" x="57.81" y="442.21" width="23.99" height="1.59" transform="translate(-1.73 0.28) rotate(-0.22)"/><rect class="cls-1" x="109.1" y="430.53" width="24.88" height="37.64" transform="translate(-1.8 0.49) rotate(-0.23)"/><rect class="cls-6" x="128.35" y="430.49" width="5.62" height="37.64" transform="translate(-1.8 0.53) rotate(-0.23)"/><rect class="cls-6" x="109.02" y="430.53" width="24.88" height="4.95" transform="matrix(1, 0, 0, 1, -1.74, 0.49)"/><path class="cls-7" d="M106.37,471.83l-.18-44.66,30.65-.12L137,471.7Zm1.42-43.07.17,41.47,27.47-.11-.17-41.47Z"/><path class="cls-7" d="M108.81,468.3l-.15-38.36,25.92-.1.16,38.36Zm1.45-36.77.14,35.18,22.74-.09L133,431.44Z"/><rect class="cls-7" x="109.6" y="440.85" width="23.99" height="1.59" transform="translate(-1.72 0.48) rotate(-0.22)"/><rect class="cls-7" x="121.18" y="430.2" width="1.59" height="11.44" transform="translate(-1.72 0.48) rotate(-0.23)"/><rect class="cls-7" x="109.46" y="442.04" width="23.99" height="1.59" transform="translate(-1.73 0.48) rotate(-0.22)"/><rect class="cls-1" x="160.74" y="430.36" width="24.88" height="37.64" transform="translate(-1.8 0.7) rotate(-0.23)"/><rect class="cls-6" x="180" y="430.32" width="5.62" height="37.64" transform="translate(-1.8 0.74) rotate(-0.23)"/><rect class="cls-6" x="160.67" y="430.36" width="24.88" height="4.95" transform="translate(-1.74 0.7) rotate(-0.23)"/><path class="cls-7" d="M158,471.65,157.84,427l30.65-.12.18,44.65Zm1.42-43.07.16,41.48,27.47-.11-.16-41.48Z"/><path class="cls-7" d="M160.46,468.13l-.15-38.36,25.92-.1.15,38.36Zm1.44-36.77.14,35.18,22.75-.1-.15-35.18Z"/><rect class="cls-7" x="161.25" y="440.68" width="23.99" height="1.59" transform="translate(-1.72 0.68) rotate(-0.22)"/><rect class="cls-7" x="172.82" y="430.03" width="1.59" height="11.44" transform="translate(-1.77 0.71) rotate(-0.23)"/><rect class="cls-7" x="161.11" y="441.87" width="23.99" height="1.59" transform="translate(-1.73 0.68) rotate(-0.22)"/><rect class="cls-1" x="57.45" y="503.86" width="24.88" height="37.64" transform="translate(-2.1 0.28) rotate(-0.23)"/><rect class="cls-6" x="76.7" y="503.83" width="5.62" height="37.64" transform="translate(-2.1 0.32) rotate(-0.23)"/><rect class="cls-6" x="57.37" y="503.86" width="24.88" height="4.95" transform="translate(-2.03 0.28) rotate(-0.23)"/><path class="cls-7" d="M54.73,545.16l-.18-44.66,30.65-.12L85.37,545Zm1.41-43.07.17,41.47,27.47-.11L83.61,502Z"/><path class="cls-7" d="M57.17,541.64,57,503.28l25.92-.11.16,38.36Zm1.44-36.78L58.75,540,81.49,540l-.14-35.18Z"/><rect class="cls-7" x="57.95" y="514.18" width="23.99" height="1.59" transform="translate(-2.01 0.28) rotate(-0.22)"/><rect class="cls-7" x="69.53" y="503.54" width="1.59" height="11.44" transform="translate(-2.07 0.29) rotate(-0.23)"/><rect class="cls-7" x="57.81" y="515.37" width="23.99" height="1.59" transform="translate(-2.02 0.28) rotate(-0.22)"/><rect class="cls-1" x="109.1" y="503.69" width="24.88" height="37.64" transform="matrix(1, 0, 0, 1, -2.1, 0.49)"/><rect class="cls-6" x="128.35" y="503.65" width="5.62" height="37.64" transform="translate(-2.1 0.53) rotate(-0.23)"/><rect class="cls-6" x="109.02" y="503.69" width="24.88" height="4.95" transform="translate(-2.03 0.49) rotate(-0.23)"/><path class="cls-7" d="M106.37,545l-.18-44.66,30.65-.12.18,44.65Zm1.42-43.07.17,41.47,27.47-.11-.17-41.47Z"/><path class="cls-7" d="M108.81,541.46l-.15-38.36,25.92-.1.16,38.36Zm1.45-36.77.14,35.18,22.74-.09L133,504.6Z"/><rect class="cls-7" x="109.6" y="514.01" width="23.99" height="1.59" transform="translate(-2.01 0.48) rotate(-0.22)"/><rect class="cls-7" x="121.18" y="503.36" width="1.59" height="11.44" transform="translate(-2 0.48) rotate(-0.23)"/><rect class="cls-7" x="109.46" y="515.2" width="23.99" height="1.59" transform="translate(-2.01 0.48) rotate(-0.22)"/><rect class="cls-1" x="160.74" y="503.52" width="24.88" height="37.64" transform="translate(-2.09 0.7) rotate(-0.23)"/><rect class="cls-6" x="180" y="503.48" width="5.62" height="37.64" transform="translate(-2.09 0.74) rotate(-0.23)"/><rect class="cls-6" x="160.67" y="503.52" width="24.88" height="4.95" transform="translate(-2.03 0.7) rotate(-0.23)"/><path class="cls-7" d="M158,544.81l-.18-44.65,30.65-.12.18,44.65Zm1.42-43.07.16,41.48,27.47-.11-.16-41.48Z"/><path class="cls-7" d="M160.46,541.29l-.15-38.36,25.92-.1.15,38.36Zm1.44-36.77L162,539.7l22.75-.1-.15-35.18Z"/><rect class="cls-7" x="161.25" y="513.84" width="23.99" height="1.59" transform="translate(-2.01 0.68) rotate(-0.22)"/><rect class="cls-7" x="172.82" y="503.19" width="1.59" height="11.44" transform="translate(-2.07 0.71) rotate(-0.23)"/><rect class="cls-7" x="161.11" y="515.03" width="23.99" height="1.59" transform="translate(-2.01 0.68) rotate(-0.22)"/><rect class="cls-1" x="217.61" y="319.38" width="24.88" height="37.64" transform="translate(-1.36 0.93) rotate(-0.23)"/><rect class="cls-6" x="236.87" y="319.34" width="5.62" height="37.64" transform="matrix(1, 0, 0, 1, -1.36, 0.96)"/><rect class="cls-6" x="217.54" y="319.38" width="24.88" height="4.95" transform="translate(-1.29 0.93) rotate(-0.23)"/><path class="cls-7" d="M214.89,360.67,214.71,316l30.65-.13.18,44.66Zm1.42-43.07.16,41.47,27.47-.11-.17-41.47Z"/><path class="cls-7" d="M217.33,357.15l-.16-38.36,25.93-.11.15,38.36Zm1.44-36.78.14,35.18,22.74-.09-.14-35.18Z"/><rect class="cls-7" x="218.12" y="329.7" width="23.99" height="1.59" transform="translate(-1.29 0.9) rotate(-0.22)"/><rect class="cls-7" x="229.69" y="319.05" width="1.59" height="11.44" transform="matrix(1, 0, 0, 1, -1.28, 0.91)"/><rect class="cls-7" x="217.97" y="330.88" width="23.99" height="1.59" transform="translate(-1.29 0.9) rotate(-0.22)"/><rect class="cls-1" x="269.26" y="319.2" width="24.88" height="37.64" transform="translate(-1.35 1.13) rotate(-0.23)"/><rect class="cls-6" x="288.51" y="319.16" width="5.62" height="37.64" transform="translate(-1.35 1.17) rotate(-0.23)"/><rect class="cls-6" x="269.18" y="319.2" width="24.88" height="4.95" transform="translate(-1.29 1.13) rotate(-0.23)"/><path class="cls-7" d="M266.54,360.5l-.18-44.66,30.65-.12.17,44.65ZM268,317.43l.17,41.47,27.47-.11-.17-41.47Z"/><path class="cls-7" d="M269,357l-.16-38.37,25.92-.1.16,38.36Zm1.44-36.78.14,35.18,22.74-.09-.14-35.18Z"/><rect class="cls-7" x="269.76" y="329.52" width="23.99" height="1.59" transform="translate(-1.29 1.1) rotate(-0.22)"/><rect class="cls-7" x="281.34" y="318.88" width="1.59" height="11.44" transform="translate(-1.32 1.15) rotate(-0.23)"/><rect class="cls-7" x="269.62" y="330.71" width="23.99" height="1.59" transform="translate(-1.29 1.1) rotate(-0.22)"/><rect class="cls-1" x="320.9" y="319.03" width="24.88" height="37.64" transform="translate(-1.35 1.34) rotate(-0.23)"/><rect class="cls-6" x="340.16" y="318.99" width="5.62" height="37.64" transform="translate(-1.35 1.38) rotate(-0.23)"/><rect class="cls-6" x="320.83" y="319.03" width="24.88" height="4.95" transform="translate(-1.29 1.34) rotate(-0.23)"/><path class="cls-7" d="M318.18,360.32,318,315.67l30.65-.12.18,44.65Zm1.42-43.06.17,41.47,27.47-.11-.17-41.48Z"/><path class="cls-7" d="M320.62,356.8l-.15-38.36,25.92-.1.16,38.36ZM322.07,320l.14,35.18,22.74-.1-.14-35.18Z"/><rect class="cls-7" x="321.41" y="329.35" width="23.99" height="1.59" transform="translate(-1.29 1.3) rotate(-0.22)"/><rect class="cls-7" x="332.99" y="318.7" width="1.59" height="11.44" transform="translate(-1.27 1.32) rotate(-0.23)"/><rect class="cls-7" x="321.27" y="330.54" width="23.99" height="1.59" transform="translate(-1.29 1.3) rotate(-0.22)"/><rect class="cls-1" x="219.2" y="397.31" width="24.88" height="37.64" transform="translate(-1.67 0.93) rotate(-0.23)"/><rect class="cls-6" x="238.46" y="397.27" width="5.62" height="37.64" transform="translate(-1.67 0.97) rotate(-0.23)"/><rect class="cls-6" x="219.13" y="397.31" width="24.88" height="4.95" transform="translate(-1.6 0.93) rotate(-0.23)"/><path class="cls-7" d="M216.48,438.6,216.3,394l30.65-.13.18,44.66Zm1.42-43.07.16,41.47,27.47-.11-.17-41.47Z"/><path class="cls-7" d="M218.92,435.08l-.16-38.36,25.93-.11.15,38.36Zm1.44-36.78.14,35.18,22.74-.09-.14-35.18Z"/><rect class="cls-7" x="219.71" y="407.63" width="23.99" height="1.59" transform="translate(-1.59 0.91) rotate(-0.22)"/><rect class="cls-7" x="231.28" y="396.98" width="1.59" height="11.44" transform="translate(-1.58 0.92) rotate(-0.23)"/><rect class="cls-7" x="219.56" y="408.81" width="23.99" height="1.59" transform="translate(-1.6 0.91) rotate(-0.22)"/><rect class="cls-1" x="270.85" y="397.13" width="24.88" height="37.64" transform="matrix(1, 0, 0, 1, -1.67, 1.14)"/><rect class="cls-6" x="290.11" y="397.1" width="5.62" height="37.64" transform="translate(-1.67 1.18) rotate(-0.23)"/><rect class="cls-6" x="270.77" y="397.13" width="24.88" height="4.95" transform="translate(-1.6 1.14) rotate(-0.23)"/><path class="cls-7" d="M268.13,438.43,268,393.77l30.65-.12.17,44.65Zm1.41-43.07.17,41.47,27.47-.11L297,395.25Z"/><path class="cls-7" d="M270.57,434.91l-.16-38.37,25.92-.1.16,38.36ZM272,398.13l.14,35.18,22.74-.09L294.75,398Z"/><rect class="cls-7" x="271.36" y="407.45" width="23.99" height="1.59" transform="translate(-1.59 1.11) rotate(-0.22)"/><rect class="cls-7" x="282.93" y="396.81" width="1.59" height="11.44" transform="translate(-1.64 1.16) rotate(-0.23)"/><rect class="cls-7" x="271.21" y="408.64" width="23.99" height="1.59" transform="translate(-1.6 1.11) rotate(-0.22)"/><rect class="cls-1" x="322.5" y="396.96" width="24.88" height="37.64" transform="translate(-1.67 1.35) rotate(-0.23)"/><rect class="cls-6" x="341.75" y="396.92" width="5.62" height="37.64" transform="translate(-1.67 1.39) rotate(-0.23)"/><rect class="cls-6" x="322.42" y="396.96" width="24.88" height="4.95" transform="translate(-1.6 1.35) rotate(-0.23)"/><path class="cls-7" d="M319.77,438.25l-.18-44.65,30.65-.12.18,44.65Zm1.42-43.06.17,41.47,27.47-.11-.17-41.47Z"/><path class="cls-7" d="M322.21,434.73l-.15-38.36,25.92-.1.16,38.36ZM323.66,398l.14,35.18,22.74-.09-.14-35.18Z"/><rect class="cls-7" x="323" y="407.28" width="23.99" height="1.59" transform="translate(-1.59 1.31) rotate(-0.22)"/><rect class="cls-7" x="334.58" y="396.63" width="1.59" height="11.44" transform="translate(-1.58 1.32) rotate(-0.23)"/><rect class="cls-7" x="322.86" y="408.47" width="23.99" height="1.59" transform="translate(-1.6 1.31) rotate(-0.22)"/><rect class="cls-1" x="219.2" y="472.06" width="24.88" height="37.64" transform="translate(-1.97 0.93) rotate(-0.23)"/><rect class="cls-6" x="238.46" y="472.02" width="5.62" height="37.64" transform="translate(-1.97 0.97) rotate(-0.23)"/><rect class="cls-6" x="219.13" y="472.06" width="24.88" height="4.95" transform="translate(-1.9 0.93) rotate(-0.23)"/><path class="cls-7" d="M216.48,513.35l-.18-44.65,30.65-.13.18,44.66Zm1.42-43.07.16,41.47,27.47-.11-.17-41.47Z"/><path class="cls-7" d="M218.92,509.83l-.16-38.36,25.93-.11.15,38.36Zm1.44-36.78.14,35.18,22.74-.09L243.1,473Z"/><rect class="cls-7" x="219.71" y="482.38" width="23.99" height="1.59" transform="translate(-1.89 0.91) rotate(-0.22)"/><rect class="cls-7" x="231.28" y="471.73" width="1.59" height="11.44" transform="translate(-1.88 0.92) rotate(-0.23)"/><rect class="cls-7" x="219.56" y="483.56" width="23.99" height="1.59" transform="translate(-1.89 0.91) rotate(-0.22)"/><rect class="cls-1" x="270.85" y="471.88" width="24.88" height="37.64" transform="translate(-1.97 1.14) rotate(-0.23)"/><rect class="cls-6" x="290.11" y="471.85" width="5.62" height="37.64" transform="matrix(1, 0, 0, 1, -1.97, 1.18)"/><rect class="cls-6" x="270.77" y="471.88" width="24.88" height="4.95" transform="translate(-1.9 1.14) rotate(-0.23)"/><path class="cls-7" d="M268.13,513.18,268,468.52l30.65-.12.17,44.65Zm1.41-43.07.17,41.47,27.47-.11L297,470Z"/><path class="cls-7" d="M270.57,509.66l-.16-38.37,25.92-.1.16,38.36ZM272,472.88l.14,35.18,22.74-.09-.14-35.18Z"/><rect class="cls-7" x="271.36" y="482.2" width="23.99" height="1.59" transform="translate(-1.88 1.11) rotate(-0.22)"/><rect class="cls-7" x="282.93" y="471.56" width="1.59" height="11.44" transform="matrix(1, 0, 0, 1, -1.94, 1.16)"/><rect class="cls-7" x="271.21" y="483.39" width="23.99" height="1.59" transform="translate(-1.89 1.11) rotate(-0.22)"/><rect class="cls-1" x="322.5" y="471.71" width="24.88" height="37.64" transform="translate(-1.97 1.35) rotate(-0.23)"/><rect class="cls-6" x="341.75" y="471.67" width="5.62" height="37.64" transform="translate(-1.97 1.39) rotate(-0.23)"/><rect class="cls-6" x="322.42" y="471.71" width="24.88" height="4.95" transform="translate(-1.9 1.35) rotate(-0.23)"/><path class="cls-7" d="M319.77,513l-.18-44.65,30.65-.12.18,44.65Zm1.42-43.06.17,41.47,27.47-.11-.17-41.47Z"/><path class="cls-7" d="M322.21,509.48l-.15-38.36L348,471l.16,38.36Zm1.45-36.77.14,35.18,22.74-.09-.14-35.19Z"/><rect class="cls-7" x="323" y="482.03" width="23.99" height="1.59" transform="translate(-1.88 1.31) rotate(-0.22)"/><rect class="cls-7" x="334.58" y="471.38" width="1.59" height="11.44" transform="translate(-1.88 1.32) rotate(-0.23)"/><rect class="cls-7" x="322.86" y="483.22" width="23.99" height="1.59" transform="translate(-1.89 1.31) rotate(-0.22)"/><path class="cls-3" d="M230.88,624.31a14.49,14.49,0,0,0,1.74-6.83c0-8.8-8-15.94-17.79-15.94S197,608.68,197,617.48a14.49,14.49,0,0,0,1.74,6.83Z"/><path class="cls-3" d="M17.55,617.48a14.36,14.36,0,0,1-1.64,6.63l-.1.2H0V601.55a18.39,18.39,0,0,1,3,.26C11.28,603.17,17.55,609.67,17.55,617.48Z"/><path class="cls-3" d="M244.9,624.31a11.19,11.19,0,0,0,1.07-4.77,11,11,0,1,0-21.9,0,11.19,11.19,0,0,0,1.07,4.77Z"/><polygon class="cls-5" points="158.49 624.31 82.15 624.31 78.97 560.7 155.31 560.7 158.49 624.31"/><polygon class="cls-8" points="164.85 584.55 71.02 584.55 78.97 560.7 158.49 560.7 164.85 584.55"/><rect class="cls-5" x="158.19" y="332.29" width="14.32" height="6.47" rx="1.13"/><rect class="cls-5" x="144.23" y="342.43" width="14.32" height="6.47" rx="1.13"/><rect class="cls-5" x="348.05" y="290.34" width="14.32" height="6.47" rx="1.13"/><rect class="cls-5" x="330.2" y="300.48" width="14.32" height="6.47" rx="1.13"/><rect class="cls-4" x="223.64" y="565.88" width="14.32" height="6.47" rx="1.13"/><rect class="cls-4" x="241.49" y="576.02" width="14.32" height="6.47" rx="1.13"/><path class="cls-5" d="M359.71,553.81c-2.23-13.15-5.64-33.19-16-35.41-11.21-2.39-24.25,17.36-29.5,29.08-3.4,7.59-8.16,18.23-4.64,29.93,5.9,19.56,32.2,32.93,44.68,25.71S362.33,569.23,359.71,553.81ZM337,527.5a17.77,17.77,0,0,0-7.18,4,14.08,14.08,0,0,0-4.54,6.79A.68.68,0,0,1,324,538a15.22,15.22,0,0,1,4.77-7.28,25.42,25.42,0,0,1,2.24-2c1.51-1.21,3.55-2.65,5.61-2.42l0,0A.68.68,0,0,1,337,527.5Z"/><rect class="cls-9" x="340.74" y="557.39" width="3.79" height="70.81"/><rect class="cls-9" x="335.58" y="573" width="3.79" height="16.01" transform="translate(-295.11 354.54) rotate(-40.15)"/><path class="cls-3" d="M1134.53,623.8a31.74,31.74,0,0,1-2.71-12.84c0-16.56,12.41-30,27.71-30s27.71,13.42,27.71,30a31.74,31.74,0,0,1-2.7,12.84Z"/><rect class="cls-10" x="986.03" y="165.15" width="167.07" height="458.66"/><rect class="cls-10" x="820.54" y="284.93" width="165.49" height="338.87"/><polygon class="cls-11" points="904.07 623.8 986.03 623.8 986.03 284.93 948.21 284.93 904.07 623.8"/><rect class="cls-11" x="1136.12" y="181.28" width="14.19" height="6.41" rx="1.12"/><rect class="cls-11" x="1118.43" y="191.32" width="14.19" height="6.41" rx="1.12"/><rect class="cls-1" x="1100.9" y="219.97" width="37.3" height="24.65" transform="translate(882.76 1350.91) rotate(-89.77)"/><rect class="cls-6" x="1091.36" y="229.48" width="37.3" height="5.57" transform="translate(873.3 1341.33) rotate(-89.77)"/><rect class="cls-6" x="1117.17" y="203.77" width="4.9" height="24.66" transform="translate(899.03 1334.85) rotate(-89.77)"/><path class="cls-7" d="M1104.2,254.45l.18-44.25,30.37.12-.17,44.25Zm1.75-42.67-.16,41.1L1133,253l.16-41.1Z"/><path class="cls-7" d="M1106.47,251l.15-38,25.69.11-.15,38Zm1.72-36.43-.14,34.86,22.54.09.14-34.86Z"/><rect class="cls-7" x="1118.7" y="212.78" width="1.58" height="23.77" transform="translate(890.45 1343.27) rotate(-89.78)"/><rect class="cls-7" x="1113.45" y="218.21" width="11.34" height="1.58" transform="translate(895.57 1337.21) rotate(-89.77)"/><rect class="cls-7" x="1118.85" y="213.95" width="1.58" height="23.77" transform="translate(889.42 1344.58) rotate(-89.78)"/><rect class="cls-1" x="1049.72" y="219.8" width="37.3" height="24.65" transform="translate(831.96 1299.56) rotate(-89.77)"/><rect class="cls-6" x="1040.18" y="229.31" width="37.3" height="5.57" transform="translate(822.49 1289.98) rotate(-89.77)"/><rect class="cls-6" x="1065.99" y="203.6" width="4.9" height="24.66" transform="translate(848.22 1283.5) rotate(-89.77)"/><path class="cls-7" d="M1053,254.28l.18-44.25,30.37.12-.18,44.25Zm1.75-42.67-.17,41.1,27.22.11.17-41.1Z"/><path class="cls-7" d="M1055.29,250.81l.15-38,25.69.11-.15,38Zm1.72-36.43-.14,34.86,22.54.09.14-34.86Z"/><rect class="cls-7" x="1067.52" y="212.61" width="1.58" height="23.77" transform="translate(839.64 1291.92) rotate(-89.78)"/><rect class="cls-7" x="1062.27" y="218.04" width="11.34" height="1.58" transform="translate(844.91 1285.89) rotate(-89.77)"/><rect class="cls-7" x="1067.66" y="213.79" width="1.58" height="23.77" transform="translate(838.61 1293.23) rotate(-89.78)"/><rect class="cls-1" x="998.54" y="219.63" width="37.3" height="24.65" transform="translate(781.15 1248.21) rotate(-89.77)"/><rect class="cls-6" x="989" y="229.14" width="37.3" height="5.57" transform="translate(771.68 1238.63) rotate(-89.77)"/><rect class="cls-6" x="1014.8" y="203.43" width="4.9" height="24.66" transform="translate(797.41 1232.14) rotate(-89.77)"/><path class="cls-7" d="M1001.84,254.11l.17-44.25,30.38.12-.18,44.25Zm1.74-42.67-.16,41.1,27.22.11.16-41.1Z"/><path class="cls-7" d="M1004.1,250.64l.16-38,25.68.11-.15,38Zm1.73-36.44-.14,34.87,22.53.09.14-34.86Z"/><rect class="cls-7" x="1016.34" y="212.44" width="1.58" height="23.77" transform="translate(788.83 1240.56) rotate(-89.78)"/><rect class="cls-7" x="1011.08" y="217.86" width="11.34" height="1.58" transform="translate(793.96 1234.51) rotate(-89.77)"/><rect class="cls-7" x="1016.48" y="213.61" width="1.58" height="23.77" transform="translate(787.79 1241.88) rotate(-89.78)"/><rect class="cls-1" x="1100.9" y="293.26" width="37.3" height="24.65" transform="translate(809.48 1423.9) rotate(-89.77)"/><rect class="cls-6" x="1091.36" y="302.76" width="37.3" height="5.57" transform="translate(800.02 1414.32) rotate(-89.77)"/><rect class="cls-6" x="1117.17" y="277.05" width="4.9" height="24.66" transform="translate(825.75 1407.83) rotate(-89.77)"/><path class="cls-7" d="M1104.2,327.73l.18-44.25,30.37.12-.17,44.25Zm1.75-42.67-.16,41.1,27.22.11.16-41.1Z"/><path class="cls-7" d="M1106.47,324.26l.15-38,25.69.11-.15,38Zm1.72-36.43-.14,34.86,22.54.09.14-34.86Z"/><rect class="cls-7" x="1118.7" y="286.06" width="1.58" height="23.77" transform="translate(817.17 1416.27) rotate(-89.78)"/><rect class="cls-7" x="1113.45" y="291.49" width="11.34" height="1.58" transform="translate(822.29 1410.19) rotate(-89.77)"/><rect class="cls-7" x="1118.85" y="287.24" width="1.58" height="23.77" transform="translate(816.14 1417.58) rotate(-89.78)"/><rect class="cls-1" x="1049.72" y="293.08" width="37.3" height="24.65" transform="translate(758.68 1372.55) rotate(-89.77)"/><rect class="cls-6" x="1040.18" y="302.59" width="37.3" height="5.57" transform="translate(749.21 1362.97) rotate(-89.77)"/><rect class="cls-6" x="1065.99" y="276.88" width="4.9" height="24.66" transform="translate(774.94 1356.48) rotate(-89.77)"/><path class="cls-7" d="M1053,327.56l.18-44.25,30.37.12-.18,44.25Zm1.75-42.67-.17,41.1,27.22.11L1082,285Z"/><path class="cls-7" d="M1055.29,324.09l.15-38,25.69.11-.15,38Zm1.72-36.43-.14,34.86,22.54.09.14-34.86Z"/><rect class="cls-7" x="1067.52" y="285.89" width="1.58" height="23.77" transform="translate(766.36 1364.91) rotate(-89.78)"/><rect class="cls-7" x="1062.27" y="291.32" width="11.34" height="1.58" transform="translate(771.63 1358.88) rotate(-89.77)"/><rect class="cls-7" x="1067.66" y="287.07" width="1.58" height="23.77" transform="translate(765.33 1366.23) rotate(-89.78)"/><rect class="cls-1" x="998.54" y="292.91" width="37.3" height="24.65" transform="translate(707.87 1321.19) rotate(-89.77)"/><rect class="cls-6" x="989" y="302.42" width="37.3" height="5.57" transform="translate(698.4 1311.61) rotate(-89.77)"/><rect class="cls-6" x="1014.8" y="276.71" width="4.9" height="24.66" transform="translate(724.13 1305.13) rotate(-89.77)"/><path class="cls-7" d="M1001.84,327.39l.17-44.25,30.38.12-.18,44.25Zm1.74-42.67-.16,41.1,27.22.11.16-41.1Z"/><path class="cls-7" d="M1004.1,323.92l.16-38,25.68.11-.15,38Zm1.73-36.44-.14,34.87,22.53.09.14-34.86Z"/><rect class="cls-7" x="1016.34" y="285.72" width="1.58" height="23.77" transform="translate(715.55 1313.56) rotate(-89.78)"/><rect class="cls-7" x="1011.08" y="291.15" width="11.34" height="1.58" transform="translate(720.68 1307.49) rotate(-89.77)"/><rect class="cls-7" x="1016.48" y="286.89" width="1.58" height="23.77" transform="translate(714.51 1314.87) rotate(-89.78)"/><rect class="cls-1" x="1100.9" y="365.76" width="37.3" height="24.65" transform="translate(736.98 1496.11) rotate(-89.77)"/><rect class="cls-6" x="1091.36" y="375.26" width="37.3" height="5.57" transform="matrix(0, -1, 1, 0, 727.52, 1486.53)"/><rect class="cls-6" x="1117.17" y="349.56" width="4.9" height="24.66" transform="translate(753.25 1480.05) rotate(-89.77)"/><path class="cls-7" d="M1104.2,400.23l.18-44.25,30.37.12-.17,44.26Zm1.75-42.67-.16,41.1,27.22.11.16-41.1Z"/><path class="cls-7" d="M1106.47,396.76l.15-38,25.69.1-.15,38Zm1.72-36.43-.14,34.86,22.54.09.14-34.86Z"/><rect class="cls-7" x="1118.7" y="358.56" width="1.58" height="23.77" transform="translate(744.67 1488.48) rotate(-89.78)"/><rect class="cls-7" x="1113.45" y="363.99" width="11.34" height="1.58" transform="translate(749.79 1482.4) rotate(-89.77)"/><rect class="cls-7" x="1118.85" y="359.74" width="1.58" height="23.77" transform="translate(743.64 1489.8) rotate(-89.78)"/><rect class="cls-1" x="1049.72" y="365.59" width="37.3" height="24.65" transform="matrix(0, -1, 1, 0, 686.17, 1444.76)"/><rect class="cls-6" x="1040.18" y="375.09" width="37.3" height="5.57" transform="translate(676.71 1435.18) rotate(-89.77)"/><rect class="cls-6" x="1065.99" y="349.38" width="4.9" height="24.66" transform="translate(702.44 1428.69) rotate(-89.77)"/><path class="cls-7" d="M1053,400.06l.18-44.25,30.37.12-.18,44.25Zm1.75-42.67-.17,41.1,27.22.11.17-41.1Z"/><path class="cls-7" d="M1055.29,396.59l.15-38,25.69.1-.15,38Zm1.72-36.43-.14,34.86,22.54.09.14-34.86Z"/><rect class="cls-7" x="1067.52" y="358.39" width="1.58" height="23.77" transform="translate(693.86 1437.13) rotate(-89.78)"/><rect class="cls-7" x="1062.27" y="363.82" width="11.34" height="1.58" transform="translate(699.13 1431.1) rotate(-89.77)"/><rect class="cls-7" x="1067.66" y="359.57" width="1.58" height="23.77" transform="translate(692.83 1438.44) rotate(-89.78)"/><rect class="cls-1" x="998.54" y="365.42" width="37.3" height="24.65" transform="translate(635.37 1393.41) rotate(-89.77)"/><rect class="cls-6" x="989" y="374.92" width="37.3" height="5.57" transform="translate(625.9 1383.82) rotate(-89.77)"/><rect class="cls-6" x="1014.8" y="349.21" width="4.9" height="24.66" transform="translate(651.63 1377.34) rotate(-89.77)"/><path class="cls-7" d="M1001.84,399.89l.17-44.25,30.38.12-.18,44.25Zm1.74-42.67-.16,41.1,27.22.11.16-41.1Z"/><path class="cls-7" d="M1004.1,396.42l.16-38,25.68.11-.15,38Zm1.73-36.43-.14,34.86,22.53.09.14-34.86Z"/><rect class="cls-7" x="1016.34" y="358.22" width="1.58" height="23.77" transform="translate(643.05 1385.78) rotate(-89.78)"/><rect class="cls-7" x="1011.08" y="363.65" width="11.34" height="1.58" transform="translate(648.18 1379.7) rotate(-89.77)"/><rect class="cls-7" x="1016.48" y="359.4" width="1.58" height="23.77" transform="translate(642.01 1387.09) rotate(-89.78)"/><rect class="cls-1" x="1100.9" y="438.26" width="37.3" height="24.65" transform="translate(664.48 1568.32) rotate(-89.77)"/><rect class="cls-6" x="1091.36" y="447.76" width="37.3" height="5.57" transform="translate(655.02 1558.74) rotate(-89.77)"/><rect class="cls-6" x="1117.17" y="422.06" width="4.9" height="24.66" transform="translate(680.75 1552.26) rotate(-89.77)"/><path class="cls-7" d="M1104.2,472.74l.18-44.26,30.37.13-.17,44.25Zm1.75-42.67-.16,41.1,27.22.11.16-41.1Z"/><path class="cls-7" d="M1106.47,469.27l.15-38,25.69.1-.15,38Zm1.72-36.44-.14,34.87,22.54.09.14-34.87Z"/><rect class="cls-7" x="1118.7" y="431.06" width="1.58" height="23.77" transform="translate(672.17 1560.7) rotate(-89.78)"/><rect class="cls-7" x="1113.45" y="436.49" width="11.34" height="1.58" transform="translate(677.29 1554.61) rotate(-89.77)"/><rect class="cls-7" x="1118.85" y="432.24" width="1.58" height="23.77" transform="translate(671.14 1562.02) rotate(-89.78)"/><rect class="cls-1" x="1049.72" y="438.09" width="37.3" height="24.65" transform="translate(613.67 1516.97) rotate(-89.77)"/><rect class="cls-6" x="1040.18" y="447.59" width="37.3" height="5.57" transform="translate(604.21 1507.39) rotate(-89.77)"/><rect class="cls-6" x="1065.99" y="421.89" width="4.9" height="24.66" transform="translate(629.94 1500.9) rotate(-89.77)"/><path class="cls-7" d="M1053,472.57l.18-44.26,30.37.13-.18,44.25Zm1.75-42.67-.17,41.1,27.22.1L1082,430Z"/><path class="cls-7" d="M1055.29,469.09l.15-38,25.69.1-.15,38Zm1.72-36.43-.14,34.86,22.54.1.14-34.87Z"/><rect class="cls-7" x="1067.52" y="430.89" width="1.58" height="23.77" transform="translate(621.36 1509.35) rotate(-89.78)"/><rect class="cls-7" x="1062.27" y="436.32" width="11.34" height="1.58" transform="translate(626.63 1503.32) rotate(-89.77)"/><rect class="cls-7" x="1067.66" y="432.07" width="1.58" height="23.77" transform="translate(620.32 1510.66) rotate(-89.78)"/><rect class="cls-1" x="998.54" y="437.92" width="37.3" height="24.65" transform="translate(562.86 1465.62) rotate(-89.77)"/><rect class="cls-6" x="989" y="447.42" width="37.3" height="5.57" transform="translate(553.4 1456.03) rotate(-89.77)"/><rect class="cls-6" x="1014.8" y="421.72" width="4.9" height="24.66" transform="translate(579.13 1449.55) rotate(-89.77)"/><path class="cls-7" d="M1001.84,472.39l.17-44.25,30.38.12-.18,44.26Zm1.74-42.67-.16,41.1,27.22.11.16-41.1Z"/><path class="cls-7" d="M1004.1,468.92l.16-38,25.68.1-.15,38Zm1.73-36.43-.14,34.86,22.53.09.14-34.86Z"/><rect class="cls-7" x="1016.34" y="430.72" width="1.58" height="23.77" transform="translate(570.54 1458) rotate(-89.78)"/><rect class="cls-7" x="1011.08" y="436.15" width="11.34" height="1.58" transform="translate(575.68 1451.9) rotate(-89.77)"/><rect class="cls-7" x="1016.48" y="431.9" width="1.58" height="23.77" transform="translate(569.51 1459.31) rotate(-89.78)"/><rect class="cls-1" x="1100.9" y="510.76" width="37.3" height="24.65" transform="translate(591.98 1640.53) rotate(-89.77)"/><rect class="cls-6" x="1091.36" y="520.26" width="37.3" height="5.57" transform="translate(582.51 1630.95) rotate(-89.77)"/><rect class="cls-6" x="1117.17" y="494.56" width="4.9" height="24.66" transform="translate(608.24 1624.47) rotate(-89.77)"/><path class="cls-7" d="M1104.2,545.24l.18-44.25,30.37.12-.17,44.25Zm1.75-42.67-.16,41.1,27.22.11.16-41.1Z"/><path class="cls-7" d="M1106.47,541.77l.15-38,25.69.1-.15,38Zm1.72-36.44-.14,34.87,22.54.09.14-34.87Z"/><rect class="cls-7" x="1118.7" y="503.57" width="1.58" height="23.77" transform="translate(599.67 1632.92) rotate(-89.78)"/><rect class="cls-7" x="1113.45" y="508.99" width="11.34" height="1.58" transform="translate(604.78 1626.82) rotate(-89.77)"/><rect class="cls-7" x="1118.85" y="504.74" width="1.58" height="23.77" transform="translate(598.64 1634.24) rotate(-89.78)"/><rect class="cls-1" x="1049.72" y="510.59" width="37.3" height="24.65" transform="translate(541.17 1589.18) rotate(-89.77)"/><rect class="cls-6" x="1040.18" y="520.09" width="37.3" height="5.57" transform="translate(531.71 1579.6) rotate(-89.77)"/><rect class="cls-6" x="1065.99" y="494.39" width="4.9" height="24.66" transform="translate(557.44 1573.12) rotate(-89.77)"/><path class="cls-7" d="M1053,545.07l.18-44.25,30.37.12-.18,44.25Zm1.75-42.67-.17,41.1,27.22.11.17-41.1Z"/><path class="cls-7" d="M1055.29,541.6l.15-38,25.69.1-.15,38Zm1.72-36.44-.14,34.87,22.54.09.14-34.87Z"/><rect class="cls-7" x="1067.52" y="503.4" width="1.58" height="23.77" transform="translate(548.85 1581.57) rotate(-89.78)"/><rect class="cls-7" x="1062.27" y="508.82" width="11.34" height="1.58" transform="translate(554.12 1575.53) rotate(-89.77)"/><rect class="cls-7" x="1067.66" y="504.57" width="1.58" height="23.77" transform="translate(547.82 1582.88) rotate(-89.78)"/><rect class="cls-1" x="998.54" y="510.42" width="37.3" height="24.65" transform="translate(490.36 1537.83) rotate(-89.77)"/><rect class="cls-6" x="989" y="519.92" width="37.3" height="5.57" transform="translate(480.9 1528.25) rotate(-89.77)"/><rect class="cls-6" x="1014.8" y="494.22" width="4.9" height="24.66" transform="translate(506.63 1521.76) rotate(-89.77)"/><path class="cls-7" d="M1001.84,544.9l.17-44.25,30.38.12-.18,44.25Zm1.74-42.67-.16,41.1,27.22.11.16-41.1Z"/><path class="cls-7" d="M1004.1,541.43l.16-38,25.68.1-.15,38Zm1.73-36.44-.14,34.87,22.53.09.14-34.87Z"/><rect class="cls-7" x="1016.34" y="503.23" width="1.58" height="23.77" transform="translate(498.04 1530.22) rotate(-89.78)"/><rect class="cls-7" x="1011.08" y="508.65" width="11.34" height="1.58" transform="translate(503.18 1524.11) rotate(-89.77)"/><rect class="cls-7" x="1016.48" y="504.4" width="1.58" height="23.77" transform="translate(497.01 1531.53) rotate(-89.78)"/><rect class="cls-1" x="942.18" y="327.93" width="37.3" height="24.65" transform="translate(616.72 1299.71) rotate(-89.77)"/><rect class="cls-6" x="932.64" y="337.43" width="37.3" height="5.57" transform="translate(607.26 1290.13) rotate(-89.77)"/><rect class="cls-6" x="958.45" y="311.73" width="4.9" height="24.66" transform="translate(632.99 1283.65) rotate(-89.77)"/><path class="cls-7" d="M945.48,362.41l.18-44.26,30.37.13-.18,44.25Zm1.75-42.67-.17,41.1,27.22.11.17-41.1Z"/><path class="cls-7" d="M947.75,358.94l.15-38,25.69.1-.15,38Zm1.72-36.44-.14,34.87,22.54.09.14-34.87Z"/><rect class="cls-7" x="959.98" y="320.74" width="1.58" height="23.77" transform="translate(624.4 1292.08) rotate(-89.78)"/><rect class="cls-7" x="954.73" y="326.16" width="11.34" height="1.58" transform="translate(629.67 1286.05) rotate(-89.77)"/><rect class="cls-7" x="960.12" y="321.91" width="1.58" height="23.77" transform="translate(623.36 1293.4) rotate(-89.78)"/><rect class="cls-1" x="891" y="327.76" width="37.3" height="24.65" transform="matrix(0, -1, 1, 0, 565.91, 1248.36)"/><rect class="cls-6" x="881.46" y="337.26" width="37.3" height="5.57" transform="translate(556.45 1238.78) rotate(-89.77)"/><rect class="cls-6" x="907.26" y="311.56" width="4.9" height="24.66" transform="translate(582.18 1232.29) rotate(-89.77)"/><path class="cls-7" d="M894.3,362.24l.17-44.26,30.38.13-.18,44.25ZM896,319.57l-.16,41.1,27.22.11.17-41.1Z"/><path class="cls-7" d="M896.56,358.76l.15-38,25.69.1-.15,38Zm1.72-36.43-.14,34.86,22.54.1.14-34.87Z"/><rect class="cls-7" x="908.8" y="320.56" width="1.58" height="23.77" transform="translate(573.58 1240.73) rotate(-89.78)"/><rect class="cls-7" x="903.54" y="325.99" width="11.34" height="1.58" transform="translate(578.73 1234.65) rotate(-89.77)"/><rect class="cls-7" x="908.94" y="321.74" width="1.58" height="23.77" transform="translate(572.55 1242.04) rotate(-89.78)"/><rect class="cls-1" x="839.81" y="327.59" width="37.3" height="24.65" transform="translate(515.11 1197.01) rotate(-89.77)"/><rect class="cls-6" x="830.27" y="337.09" width="37.3" height="5.57" transform="translate(505.64 1187.43) rotate(-89.77)"/><rect class="cls-6" x="856.08" y="311.39" width="4.9" height="24.66" transform="translate(531.37 1180.94) rotate(-89.77)"/><path class="cls-7" d="M843.11,362.06l.18-44.25,30.37.12-.17,44.26Zm1.75-42.66-.17,41.09,27.23.11.16-41.1Z"/><path class="cls-7" d="M845.38,358.59l.15-38,25.69.1-.15,38Zm1.72-36.43L847,357l22.54.09.14-34.86Z"/><rect class="cls-7" x="857.61" y="320.39" width="1.58" height="23.77" transform="translate(522.77 1189.38) rotate(-89.78)"/><rect class="cls-7" x="852.36" y="325.82" width="11.34" height="1.58" transform="translate(528.04 1183.34) rotate(-89.77)"/><rect class="cls-7" x="857.75" y="321.57" width="1.58" height="23.77" transform="translate(521.73 1190.69) rotate(-89.78)"/><rect class="cls-1" x="940.6" y="405.16" width="37.3" height="24.65" transform="matrix(0, -1, 1, 0, 537.92, 1375.06)"/><rect class="cls-6" x="931.06" y="414.66" width="37.3" height="5.57" transform="translate(528.46 1365.48) rotate(-89.77)"/><rect class="cls-6" x="956.87" y="388.96" width="4.9" height="24.66" transform="translate(554.19 1358.99) rotate(-89.77)"/><path class="cls-7" d="M943.9,439.64l.18-44.25,30.37.12-.17,44.25ZM945.65,397l-.16,41.1,27.22.11.16-41.1Z"/><path class="cls-7" d="M946.17,436.17l.15-38,25.69.1-.15,38Zm1.72-36.44-.14,34.87,22.54.09.14-34.87Z"/><rect class="cls-7" x="958.4" y="397.97" width="1.58" height="23.77" transform="translate(545.6 1367.44) rotate(-89.78)"/><rect class="cls-7" x="953.15" y="403.39" width="11.34" height="1.58" transform="translate(550.87 1361.4) rotate(-89.77)"/><rect class="cls-7" x="958.55" y="399.14" width="1.58" height="23.77" transform="translate(544.56 1368.75) rotate(-89.78)"/><rect class="cls-1" x="889.42" y="404.99" width="37.3" height="24.65" transform="matrix(0, -1, 1, 0, 487.11, 1323.7)"/><rect class="cls-6" x="879.88" y="414.49" width="37.3" height="5.57" transform="translate(477.65 1314.12) rotate(-89.77)"/><rect class="cls-6" x="905.69" y="388.79" width="4.9" height="24.66" transform="translate(503.38 1307.64) rotate(-89.77)"/><path class="cls-7" d="M892.72,439.47l.18-44.26,30.37.13-.18,44.25Zm1.75-42.67-.17,41.1,27.22.11.17-41.1Z"/><path class="cls-7" d="M895,436l.15-38,25.69.1-.15,38Zm1.72-36.44-.14,34.87,22.54.09.14-34.87Z"/><rect class="cls-7" x="907.22" y="397.79" width="1.58" height="23.77" transform="translate(494.78 1316.08) rotate(-89.78)"/><rect class="cls-7" x="901.97" y="403.22" width="11.34" height="1.58" transform="matrix(0, -1, 1, 0, 499.93, 1309.99)"/><rect class="cls-7" x="907.36" y="398.97" width="1.58" height="23.77" transform="translate(493.75 1317.4) rotate(-89.78)"/><rect class="cls-1" x="838.24" y="404.82" width="37.3" height="24.65" transform="matrix(0, -1, 1, 0, 436.31, 1272.35)"/><rect class="cls-6" x="828.7" y="414.32" width="37.3" height="5.57" transform="translate(426.84 1262.77) rotate(-89.77)"/><rect class="cls-6" x="854.5" y="388.62" width="4.9" height="24.66" transform="translate(452.57 1256.29) rotate(-89.77)"/><path class="cls-7" d="M841.54,439.3l.17-44.26,30.38.13-.18,44.25Zm1.74-42.67-.16,41.1,27.22.1.17-41.09Z"/><path class="cls-7" d="M843.8,435.82l.15-38,25.69.1-.15,38Zm1.72-36.43-.14,34.86,22.54.1.14-34.87Z"/><rect class="cls-7" x="856.04" y="397.62" width="1.58" height="23.77" transform="translate(443.97 1264.73) rotate(-89.78)"/><rect class="cls-7" x="850.78" y="403.05" width="11.34" height="1.58" transform="translate(449.24 1258.69) rotate(-89.77)"/><rect class="cls-7" x="856.18" y="398.8" width="1.58" height="23.77" transform="translate(442.93 1266.04) rotate(-89.78)"/><rect class="cls-1" x="940.6" y="479.24" width="37.3" height="24.65" transform="translate(463.84 1448.84) rotate(-89.77)"/><rect class="cls-6" x="931.06" y="488.74" width="37.3" height="5.57" transform="translate(454.38 1439.26) rotate(-89.77)"/><rect class="cls-6" x="956.87" y="463.04" width="4.9" height="24.66" transform="translate(480.11 1432.77) rotate(-89.77)"/><path class="cls-7" d="M943.9,513.72l.18-44.26,30.37.13-.17,44.25Zm1.75-42.67-.16,41.1,27.22.11.16-41.1Z"/><path class="cls-7" d="M946.17,510.24l.15-38,25.69.1-.15,38Zm1.72-36.43-.14,34.86,22.54.1.14-34.87Z"/><rect class="cls-7" x="958.4" y="472.04" width="1.58" height="23.77" transform="translate(471.52 1441.22) rotate(-89.78)"/><rect class="cls-7" x="953.15" y="477.47" width="11.34" height="1.58" transform="translate(476.79 1435.19) rotate(-89.77)"/><rect class="cls-7" x="958.55" y="473.22" width="1.58" height="23.77" transform="translate(470.48 1442.54) rotate(-89.78)"/><rect class="cls-1" x="889.42" y="479.07" width="37.3" height="24.65" transform="translate(413.04 1397.49) rotate(-89.77)"/><rect class="cls-6" x="879.88" y="488.57" width="37.3" height="5.57" transform="translate(403.57 1387.9) rotate(-89.77)"/><rect class="cls-6" x="905.69" y="462.87" width="4.9" height="24.66" transform="translate(429.3 1381.42) rotate(-89.77)"/><path class="cls-7" d="M892.72,513.55l.18-44.26,30.37.12-.18,44.26Zm1.75-42.67L894.3,512l27.22.1.17-41.1Z"/><path class="cls-7" d="M895,510.07l.15-38,25.69.1-.15,38Zm1.72-36.43-.14,34.86,22.54.09.14-34.86Z"/><rect class="cls-7" x="907.22" y="471.87" width="1.58" height="23.77" transform="translate(420.7 1389.87) rotate(-89.78)"/><rect class="cls-7" x="901.97" y="477.3" width="11.34" height="1.58" transform="translate(425.85 1383.77) rotate(-89.77)"/><rect class="cls-7" x="907.36" y="473.05" width="1.58" height="23.77" transform="translate(419.67 1391.18) rotate(-89.78)"/><rect class="cls-1" x="838.24" y="478.9" width="37.3" height="24.65" transform="translate(362.23 1346.13) rotate(-89.77)"/><rect class="cls-6" x="828.7" y="488.4" width="37.3" height="5.57" transform="translate(352.76 1336.55) rotate(-89.77)"/><rect class="cls-6" x="854.5" y="462.7" width="4.9" height="24.66" transform="translate(378.5 1330.07) rotate(-89.77)"/><path class="cls-7" d="M841.54,513.37l.17-44.25,30.38.12-.18,44.26Zm1.74-42.67-.16,41.1,27.22.11.17-41.1Z"/><path class="cls-7" d="M843.8,509.9l.15-38,25.69.1-.15,38Zm1.72-36.43-.14,34.86,22.54.09.14-34.86Z"/><rect class="cls-7" x="856.04" y="471.7" width="1.58" height="23.77" transform="translate(369.89 1338.52) rotate(-89.78)"/><rect class="cls-7" x="850.78" y="477.13" width="11.34" height="1.58" transform="translate(375.17 1332.48) rotate(-89.77)"/><rect class="cls-7" x="856.18" y="472.88" width="1.58" height="23.77" transform="translate(368.86 1339.83) rotate(-89.78)"/><path class="cls-3" d="M818.1,623.8a14.24,14.24,0,0,1-1.72-6.77c0-8.72,7.89-15.8,17.63-15.8s17.63,7.08,17.63,15.8a14.36,14.36,0,0,1-1.72,6.77Z"/><path class="cls-3" d="M1200,604.64v19.17h-26.85a14.43,14.43,0,0,1-1.73-6.78c0-7.73,6.21-14.18,14.41-15.53a19.11,19.11,0,0,1,3.23-.27A18.9,18.9,0,0,1,1200,604.64Z"/><path class="cls-3" d="M804.21,623.8a10.89,10.89,0,1,1,20.64-4.73,11.12,11.12,0,0,1-1.06,4.73Z"/><polygon class="cls-11" points="1031.74 623.8 1107.4 623.8 1110.55 560.76 1034.89 560.76 1031.74 623.8"/><polygon class="cls-12" points="1025.44 584.4 1118.43 584.4 1110.55 560.76 1031.74 560.76 1025.44 584.4"/><rect class="cls-11" x="1017.86" y="334.4" width="14.19" height="6.41" rx="1.12"/><rect class="cls-11" x="1031.69" y="344.45" width="14.19" height="6.41" rx="1.12"/><rect class="cls-11" x="829.7" y="292.83" width="14.19" height="6.41" rx="1.12"/><rect class="cls-11" x="847.39" y="302.88" width="14.19" height="6.41" rx="1.12"/><rect class="cls-10" x="952.99" y="565.9" width="14.19" height="6.41" rx="1.12"/><rect class="cls-10" x="935.3" y="575.95" width="14.19" height="6.41" rx="1.12"/><rect class="cls-13" width="1200" height="675.56"/></svg>