<?xml version="1.0" encoding="utf-8"?>
<!-- Generator: Adobe Illustrator 16.0.4, SVG Export Plug-In . SVG Version: 6.00 Build 0)  -->
<!DOCTYPE svg PUBLIC "-//W3C//DTD SVG 1.1//EN" "http://www.w3.org/Graphics/SVG/1.1/DTD/svg11.dtd">
<svg version="1.1" id="Layer_1" xmlns="http://www.w3.org/2000/svg" xmlns:xlink="http://www.w3.org/1999/xlink" x="0px" y="0px"
	 width="404.98px" height="404.98px" viewBox="0 0 404.98 404.98" enable-background="new 0 0 404.98 404.98" xml:space="preserve">
<path fill="#231F20" d="M400.082,72.532c-14.73,6.532-30.557,10.948-47.17,12.932c16.955-10.164,29.979-26.259,36.107-45.436
	c-15.866,9.412-33.442,16.247-52.148,19.929c-14.981-15.961-36.326-25.935-59.945-25.935c-45.358,0-82.13,36.771-82.13,82.125
	c0,6.437,0.726,12.704,2.126,18.715c-68.254-3.425-128.769-36.121-169.274-85.809c-7.07,12.13-11.12,26.238-11.12,41.289
	c0,28.492,14.5,53.63,36.535,68.358c-13.461-0.426-26.125-4.12-37.198-10.273c-0.006,0.342-0.008,0.687-0.008,1.032
	c0,39.791,28.31,72.985,65.88,80.531c-6.892,1.874-14.147,2.88-21.637,2.88c-5.292,0-10.436-0.517-15.452-1.473
	c10.452,32.626,40.782,56.373,76.719,57.035c-28.106,22.026-63.519,35.155-101.995,35.155c-6.629,0-13.167-0.39-19.592-1.146
	c36.345,23.302,79.515,36.897,125.892,36.897c151.062,0,233.666-125.142,233.666-233.669c0-3.561-0.081-7.103-0.237-10.624
	C375.146,103.467,389.071,89.003,400.082,72.532z"/>
</svg>
