<?xml version="1.0" encoding="utf-8"?>
<!-- Generator: Adobe Illustrator 16.0.4, SVG Export Plug-In . SVG Version: 6.00 Build 0)  -->
<!DOCTYPE svg PUBLIC "-//W3C//DTD SVG 1.1//EN" "http://www.w3.org/Graphics/SVG/1.1/DTD/svg11.dtd">
<svg version="1.1" id="Layer_1" xmlns="http://www.w3.org/2000/svg" xmlns:xlink="http://www.w3.org/1999/xlink" x="0px" y="0px"
	 width="267px" height="267px" viewBox="68.99 68.99 267 267" enable-background="new 68.99 68.99 267 267" xml:space="preserve">
<rect x="68.99" y="69.173" fill="#222222" width="266.963" height="266.817"/>
<path fill="#FFFFFF" d="M332.726,116.96c-9.705,4.304-20.132,7.213-31.077,8.52c11.171-6.697,19.751-17.301,23.788-29.935
	c-10.452,6.201-22.032,10.704-34.356,13.13c-9.871-10.516-23.934-17.087-39.495-17.087c-29.883,0-54.11,24.226-54.11,54.107
	c0,4.241,0.479,8.37,1.4,12.33c-44.968-2.257-84.838-23.798-111.524-56.535c-4.657,7.992-7.326,17.287-7.326,27.203
	c0,18.772,9.553,35.333,24.071,45.037c-8.869-0.281-17.212-2.715-24.508-6.769c-0.004,0.226-0.005,0.453-0.005,0.68
	c0,26.215,18.652,48.085,43.404,53.058c-4.541,1.234-9.321,1.896-14.255,1.896c-3.486,0-6.875-0.34-10.18-0.971
	c6.886,21.496,26.869,37.142,50.546,37.577c-18.518,14.512-41.849,23.162-67.199,23.162c-4.368,0-8.675-0.257-12.908-0.756
	c23.946,15.354,52.388,24.31,82.943,24.31c99.526,0,153.949-82.448,153.949-153.95c0-2.347-0.054-4.68-0.156-7
	C316.297,137.341,325.472,127.812,332.726,116.96z"/>
</svg>
