<?xml version="1.0" encoding="iso-8859-1"?>
<!-- Generator: Adobe Illustrator 16.0.0, SVG Export Plug-In . SVG Version: 6.00 Build 0)  -->
<!DOCTYPE svg PUBLIC "-//W3C//DTD SVG 1.1//EN" "http://www.w3.org/Graphics/SVG/1.1/DTD/svg11.dtd">
<svg version="1.1" id="Capa_1" xmlns="http://www.w3.org/2000/svg" xmlns:xlink="http://www.w3.org/1999/xlink" x="0px" y="0px"
	 width="428.166px" height="428.166px" viewBox="0 0 428.166 428.166" style="enable-background:new 0 0 428.166 428.166;"
	 xml:space="preserve">
<g>
	<g>
		<path d="M153.323,269.414c0.252-0.102,0.517-0.192,0.781-0.288c1.525-0.564,3.074-1.087,4.65-1.609c0,0,3.843-1.267,4.9-1.591
			c1.462-0.444,2.952-0.847,4.432-1.243l2.093-0.559c1.081-0.288,2.165-0.582,3.251-0.847c1.636-0.396,3.315-0.732,4.987-1.068
			l1.31-0.276c1.213-0.265,2.429-0.528,3.654-0.732c1.702-0.312,3.461-0.564,5.227-0.817l2.177-0.317
			c0.892-0.127,1.762-0.265,2.666-0.367c1.981-0.24,3.999-0.408,6.026-0.576l1.829-0.15v-32.744h-55.328
			C146.922,240.615,149.381,255.099,153.323,269.414z"/>
		<path d="M196.176,284.234c-0.684,0.084-4.311,0.636-4.311,0.636c-1.45,0.205-2.91,0.409-4.348,0.673
			c-0.805,0.139-3.666,0.745-3.666,0.745l-1.222,0.252c-1.249,0.264-2.498,0.517-3.72,0.816c-0.792,0.192-4.383,1.159-4.383,1.159
			c-1.36,0.366-2.699,0.727-4.047,1.135c-1.045,0.324-2.09,0.673-3.135,1.033l-0.897,0.306c-1.429,0.463-2.849,0.932-4.236,1.447
			c-0.375,0.133-0.745,0.276-1.108,0.427c9.235,23.653,22.719,47.275,40.196,70.442v-79.552l-0.265,0.024
			C199.404,283.904,197.78,284.042,196.176,284.234z"/>
		<path d="M162.964,138.792c1.009,0.294,2.054,0.553,3.102,0.816c0,0,4.167,1.069,4.924,1.237c1.462,0.342,2.897,0.612,4.312,0.883
			c0,0,3.17,0.633,3.891,0.75c1.396,0.24,2.774,0.42,4.143,0.604c0,0,3.567,0.51,4.207,0.585c1.525,0.165,3.062,0.282,4.6,0.394
			l3.879,0.318c1.741,0.099,3.507,0.159,5.272,0.198V62.243c-13.189,16.723-30.555,42.697-42.337,75.3L162.964,138.792z"/>
		<path d="M191.417,168.759c-2.429-0.177-4.482-0.33-6.536-0.564c-0.832-0.093-3.759-0.504-3.759-0.504l-1.285-0.166
			c-1.537-0.204-3.062-0.415-4.587-0.664c-1.057-0.186-5.089-0.973-5.089-0.973c-1.465-0.288-2.933-0.573-4.386-0.897
			c-1.009-0.234-4.083-1.009-4.083-1.009c-1.762-0.447-3.516-0.898-5.248-1.384c-1.12-0.318-4.095-1.24-4.095-1.24
			c-0.181-0.063-0.375-0.123-0.556-0.181c-3.275,13.37-5.281,26.901-5.996,40.367h55.484V169.27
			c-2.209-0.042-4.422-0.129-6.629-0.252C193.907,168.975,191.417,168.759,191.417,168.759z"/>
		<path d="M101.421,299.715c1.889-1.567,3.303-2.757,4.765-3.903c1.201-0.943,2.429-1.861,3.666-2.774
			c1.474-1.093,2.963-2.186,4.471-3.23c1.261-0.87,2.531-1.718,3.819-2.57c1.537-1.009,3.06-1.981,4.612-2.93
			c1.321-0.817,2.642-1.598,3.984-2.378c1.408-0.805,2.811-1.592,4.218-2.354c-4.999-17.582-7.989-35.481-8.923-53.341H44.063
			c2.474,34.6,15.132,66.834,36.87,93.873c1.068-1.261,2.029-2.407,3.038-3.506c0.682-0.775,1.408-1.531,2.126-2.295l0.844-0.876
			c1.537-1.64,2.774-2.948,4.047-4.216c0.817-0.811,1.66-1.597,2.495-2.39l0.757-0.702c1.372-1.297,2.747-2.582,4.167-3.832
			C99.385,301.42,100.4,300.562,101.421,299.715z"/>
		<path d="M96.347,98.35c0.949,0.985,1.889,1.931,2.837,2.883c1.033,1.032,2.102,2.065,3.17,3.068
			c0.973,0.909,1.958,1.807,2.945,2.687c1.108,0.985,2.21,1.942,3.339,2.891c1.009,0.841,2.042,1.679,3.086,2.513
			c1.144,0.898,2.293,1.79,3.461,2.663c1.06,0.792,2.117,1.567,3.186,2.318c1.201,0.855,2.417,1.666,3.63,2.474
			c1.093,0.724,2.177,1.427,3.264,2.108c1.261,0.798,2.522,1.549,3.783,2.288c1.105,0.646,2.219,1.303,3.363,1.925
			c1.162,0.646,2.318,1.243,3.461,1.837c0.469,0.234,0.892,0.457,1.285,0.658c12.956-35.558,31.717-63.972,45.553-81.927
			c-34.047,6.314-65.477,22.93-89.955,47.69c0.192,0.216,0.387,0.429,0.58,0.64C94.332,96.173,95.326,97.278,96.347,98.35z"/>
		<path d="M135.216,305.636c-1.372,0.84-2.699,1.669-4.023,2.552c-1.104,0.727-2.194,1.489-3.275,2.252
			c-1.309,0.906-2.594,1.843-3.855,2.786c-1.072,0.805-2.129,1.627-3.174,2.443c-1.237,0.973-2.459,1.982-3.678,3.003
			c-0.997,0.853-2.015,1.735-3.023,2.636c-1.201,1.057-2.369,2.138-3.507,3.219c-0.97,0.925-1.931,1.855-2.882,2.811
			c-1.144,1.141-2.234,2.293-3.314,3.446c-0.922,0.991-1.853,1.981-2.735,2.997c-1.072,1.194-2.104,2.42-3.113,3.645
			c-0.265,0.324-0.517,0.624-0.757,0.912c24.308,22.717,53.803,37.435,86.172,43.031c-19.579-25.473-34.687-51.642-45.036-78.039
			C138.861,303.413,136.342,304.927,135.216,305.636z"/>
		<path d="M129.7,152.507c-0.063-0.03-0.129-0.066-0.192-0.096c-1.285-0.609-2.558-1.249-3.831-1.895
			c-1.609-0.817-3.159-1.637-4.696-2.465c-1.261-0.691-2.498-1.391-3.732-2.099c-1.577-0.91-3.075-1.826-4.576-2.76
			c-1.213-0.744-2.429-1.507-3.627-2.294c-1.489-0.984-2.954-1.993-4.411-3.002c-1.372-0.97-2.435-1.721-3.492-2.495
			c-1.372-1.015-2.723-2.071-4.071-3.138l-3.504-2.783c-1.225-1.021-2.405-2.06-3.579-3.099c0,0-2.963-2.603-3.732-3.32
			c-1.408-1.291-2.774-2.657-4.146-4.011c0,0-2.165-2.114-2.81-2.771c-0.922-0.967-1.826-1.942-2.711-2.934
			c-19.05,25.881-30.204,56.157-32.51,88.198h77.957C122.894,185.203,125.476,168.747,129.7,152.507z"/>
		<path d="M320.704,124.924c-1.741,1.543-3.171,2.811-4.636,4.029c-1.249,1.027-2.486,2.021-3.735,3.012
			c-1.525,1.195-3.026,2.342-4.552,3.468c-1.297,0.955-2.605,1.882-3.927,2.798c-1.55,1.084-3.122,2.141-4.72,3.168
			c-1.31,0.853-2.63,1.684-3.976,2.495c5.681,19.086,9.067,38.431,10.089,57.646h77.983c-2.624-37.151-16.819-71.253-41.366-99.268
			c-1.172,1.525-2.229,2.879-3.327,4.194c-0.895,1.072-1.802,2.099-2.696,3.11l-0.456,0.51c-1.423,1.631-2.654,3.021-3.915,4.363
			c-0.805,0.865-1.651,1.702-2.469,2.537l-0.882,0.892c-1.388,1.39-2.751,2.762-4.161,4.083
			C322.901,122.97,321.791,123.948,320.704,124.924z"/>
		<path d="M273.158,155.228c-0.505,0.207-0.997,0.417-1.502,0.633c-1.812,0.757-3.278,1.357-4.756,1.931
			c-1.812,0.682-3.614,1.31-5.416,1.925c-1.669,0.583-3.074,1.075-4.491,1.525c-1.766,0.552-3.519,1.039-5.272,1.531l-1.273,0.348
			c-1.194,0.339-2.401,0.672-3.626,0.979c-1.538,0.387-3.099,0.727-4.672,1.062c0,0-4.756,1.021-5.681,1.189
			c-1.825,0.336-3.663,0.613-5.513,0.892l-2.317,0.348c-0.889,0.135-1.766,0.276-2.654,0.388v33.573h55.088
			C280.159,186.359,277.506,170.828,273.158,155.228z"/>
		<path d="M296.385,279.358c1.501,0.805,2.99,1.639,4.479,2.48c1.345,0.786,2.618,1.543,3.891,2.312
			c1.592,0.967,3.153,1.97,4.714,2.984c1.387,0.906,2.57,1.699,3.753,2.516c1.514,1.057,3.026,2.162,4.54,3.291
			c1.177,0.87,2.378,1.753,3.555,2.672c1.357,1.057,2.696,2.162,4.023,3.261c0,0,2.918,2.443,3.759,3.188
			c1.453,1.291,2.858,2.588,4.264,3.903c0,0,2.426,2.287,3.158,3.008c1.411,1.405,2.75,2.816,4.107,4.24
			c0,0,2.233,2.342,2.931,3.109c1.032,1.153,2.029,2.33,3.014,3.495c21.594-26.985,34.18-59.11,36.642-93.591h-77.966
			C304.322,244.026,301.345,261.854,296.385,279.358z"/>
		<path d="M325.855,333.6c-0.912-1.021-1.873-2.065-2.834-3.087c-1.057-1.122-2.113-2.215-3.206-3.309
			c-0.973-0.973-1.981-1.945-2.984-2.912c-1.123-1.051-2.246-2.084-3.393-3.104c-1.045-0.937-2.078-1.825-3.123-2.708
			c-1.188-0.997-2.378-1.963-3.566-2.906c-1.105-0.858-2.192-1.705-3.303-2.54c-1.195-0.9-2.456-1.789-3.711-2.679
			c-1.321-0.912-2.342-1.633-3.375-2.305c-1.309-0.865-2.606-1.664-3.903-2.475c-1.158-0.715-2.317-1.423-3.482-2.102
			c-0.204-0.126-0.408-0.24-0.612-0.354c-10.358,26.451-25.49,52.704-45.108,78.249c32.462-5.609,62.054-20.41,86.421-43.283
			c-0.216-0.264-0.433-0.528-0.66-0.78C327.874,335.941,326.877,334.759,325.855,333.6z"/>
		<path d="M290.224,117.644c1.177-0.823,2.33-1.667,3.482-2.52c1.285-0.948,2.546-1.918,3.795-2.909
			c1.129-0.897,2.229-1.808,3.327-2.723c1.23-1.039,2.432-2.086,3.627-3.156c1.093-0.964,2.125-1.942,3.17-2.933
			c1.153-1.105,2.307-2.225,3.436-3.387c1.021-1.039,2.018-2.066,2.99-3.125c1.104-1.192,2.197-2.402,3.267-3.639
			c0.961-1.093,1.897-2.189,2.822-3.309c1.032-1.261,2.054-2.576,3.074-3.886c0.324-0.432,0.654-0.861,0.984-1.291
			c-22.872-19.629-50.092-32.615-79.575-38.013c13.691,17.708,29.844,42.508,42.178,73.195
			C287.947,119.198,289.095,118.43,290.224,117.644z"/>
		<path d="M265.406,292.389c-1.376-0.505-2.732-0.948-4.107-1.405c0,0-3.201-1.08-4.186-1.381c-1.105-0.336-2.264-0.643-3.435-0.961
			c0,0-4.012-1.093-4.937-1.309c-1.309-0.324-2.605-0.589-3.903-0.854l-2.173-0.456c-0.823-0.174-1.64-0.354-2.463-0.492
			c-1.741-0.318-3.471-0.553-5.199-0.793l-1.178-0.18c-0.756-0.126-1.525-0.24-2.293-0.337c-1.766-0.203-3.508-0.348-5.249-0.479
			l-0.318-0.024v79.642c17.48-23.167,30.961-46.867,40.196-70.683C265.922,292.581,265.658,292.485,265.406,292.389z"/>
		<path d="M232.139,142.05c0.812-0.147,1.604-0.333,2.396-0.505l1.465-0.327c2.054-0.429,3.573-0.756,5.074-1.129
			c0.949-0.234,1.892-0.504,2.822-0.774l1.045-0.303c1.663-0.454,3.267-0.898,4.852-1.408c0.997-0.312,1.952-0.646,2.937-0.991
			l2.114-0.735c1.188-0.405,2.365-0.82,3.53-1.268c0.816-0.321,6.197-2.563,7.002-2.915c-11.554-29.589-27.334-53.358-39.392-68.953
			v80.266l1.537-0.231C229.064,142.554,230.62,142.332,232.139,142.05z"/>
		<path d="M214.08,0.003C95.842,0.003,0,95.852,0,214.083s95.848,214.08,214.08,214.08c118.232,0,214.086-95.843,214.086-214.074
			C428.166,95.858,332.312,0.003,214.08,0.003z M355.051,347.657c-37.182,39.295-87.405,60.942-141.412,60.942
			c-53.852,0-103.967-21.539-141.125-60.643c-34.549-36.353-53.587-83.959-53.587-134.063c0-47.083,17.075-92.548,48.071-128.021
			l0.012-0.012c37.022-42.376,90.471-66.677,146.628-66.677c50.849,0,98.971,19.521,135.516,54.959
			c38.119,36.972,59.147,86.532,59.195,139.561C408.35,263.83,389.417,311.328,355.051,347.657z"/>
		<path d="M234.271,259.687c0.889,0.114,3.981,0.582,3.981,0.582c2.029,0.283,4.06,0.577,6.077,0.919
			c0.99,0.181,1.976,0.391,2.96,0.601l1.226,0.258c2.245,0.451,3.999,0.812,5.729,1.22c0.984,0.24,1.97,0.504,2.966,0.769
			l1.249,0.342c1.861,0.492,3.699,0.985,5.524,1.531c1.009,0.307,4.228,1.363,4.228,1.363c1.802,0.595,3.579,1.184,5.332,1.832
			c0.12,0.035,0.229,0.084,0.337,0.126c3.927-14.454,6.341-28.859,7.217-42.982h-55.123v32.702c0.107,0.012,1.488,0.132,1.488,0.132
			C229.755,259.261,232.013,259.435,234.271,259.687z"/>
	</g>
</g>
<g>
</g>
<g>
</g>
<g>
</g>
<g>
</g>
<g>
</g>
<g>
</g>
<g>
</g>
<g>
</g>
<g>
</g>
<g>
</g>
<g>
</g>
<g>
</g>
<g>
</g>
<g>
</g>
<g>
</g>
</svg>
