<?xml version="1.0" encoding="UTF-8"?>
<!DOCTYPE svg PUBLIC "-//W3C//DTD SVG 1.1//EN" "http://www.w3.org/Graphics/SVG/1.1/DTD/svg11.dtd">
<svg version="1.1" xmlns="http://www.w3.org/2000/svg" xmlns:xlink="http://www.w3.org/1999/xlink" x="0" y="0" width="500" height="209" viewBox="0, 0, 500, 209">
  <g id="Layer_1">
    <g>
      <path d="M62.066,208.553 L62.066,0.447 L-0,0.447 L-0,208.553 z" fill="#FFFFFF"/>
      <path d="M175.329,208.553 C236.272,208.553 298.9,187.489 298.9,104.36 C298.9,19.826 239.923,0.447 179.261,0.447 L99.782,0.447 L99.782,208.553 z M161.849,56.616 L177.295,56.616 C218.298,56.616 235.991,68.412 235.991,104.36 C235.991,140.588 217.737,154.35 180.104,154.35 L161.849,154.35 z" fill="#FFFFFF"/>
      <path d="M406.693,208.553 C465.18,208.553 500,182.165 500,141.36 C500,91.306 460.555,82.601 415.398,78.793 C385.474,76.345 377.041,73.896 377.041,64.103 C377.041,56.214 383.57,52.95 403.428,52.95 C423.559,52.95 449.402,59.751 460.827,67.368 L490.751,24.114 C476.605,12.689 450.49,0.447 402.612,0.447 C356.911,0.447 316.922,17.585 316.922,66.279 C316.922,115.517 359.087,126.671 402.34,130.207 C431.992,132.655 440.153,135.648 440.153,144.081 C440.153,152.242 433.352,158.771 404.789,158.771 C382.482,158.771 354.462,151.426 334.332,137.552 L305.497,178.629 C326.715,195.495 353.374,208.553 406.693,208.553 z" fill="#FFFFFF"/>
    </g>
  </g>
</svg>
