<svg id="Layer_1" data-name="Layer 1" xmlns="http://www.w3.org/2000/svg" viewBox="0 0 762 75.16"><defs><style>.cls-1{fill:#fff;}</style></defs><title>headline</title><path class="cls-1" d="M547.37,17.41c3.3,1,6.76,1.56,9.84,3a11.81,11.81,0,0,0,12.25-.85,25.12,25.12,0,0,1,14.77-4.1c6.84.26,10.75,4.09,10,10.7-.86,7.28-2,14.61-5.84,21.11q-6.27,10.59-12.67,21.11c-.43.72-1.09,1.61-1.8,1.78-1.56.38-3.54,1-4.75.33a5.31,5.31,0,0,1-2.45-4,14.69,14.69,0,0,1,2-6c3.35-6.54,7-12.95,10.25-19.51a28.64,28.64,0,0,0,2.33-7.26c.39-2-2.23-4.15-4.23-3.91-5.66.69-9.46,3.84-11.9,8.86-3.58,7.35-7.12,14.73-10.81,22-2.17,4.28-4.83,8.2-9.61,10.08-2.45,1-5.76-1-5.5-3.67a24.53,24.53,0,0,1,1.69-7.48c2.44-5.53,5.42-10.82,7.87-16.35a16,16,0,0,0,1.61-7.4,6.91,6.91,0,0,0-3.25-5,6.69,6.69,0,0,0-5.87.88,26.66,26.66,0,0,0-6.57,7.85C530,48.31,526,57.39,521.47,66.22a48.81,48.81,0,0,1-6.41,9.51c-.72.84-3.26.61-4.73.13a3.77,3.77,0,0,1-1.86-3.06A33.19,33.19,0,0,1,510.28,64C515,51.93,520,40,524.92,28c1.57-3.87,4.21-6.48,8.34-7.43C537.88,19.48,542.5,18.48,547.37,17.41Z" transform="translate(-21 -6.79)"/><path class="cls-1" d="M391.72,23.23c9-3.92,17.33-1.83,25.6.85,5.42,1.75,8.78,5.41,9.15,11.27.47,7.27,1.88,14.54-1.48,21.67-1,2.08-.32,4.94-.36,7.45,0,1.69.37,3.48-.05,5a5.82,5.82,0,0,1-5.6,4.56,5.3,5.3,0,0,1-5.77-4.18,22,22,0,0,1-.31-7.63c.74-6,2.06-11.9,2.73-17.89.87-7.74-2.82-11.24-10.61-10.64-7.31.57-11.66,4.93-14.51,11.25-2.29,5.09-4.39,10.3-7,15.22-1.57,3-3.61,6.2-7.92,5.29-3.06-.66-3.91-5-2-10.17,1.38-3.63,3.32-7.07,4.34-10.78a36.88,36.88,0,0,0,1.16-10.16c0-3.2-3.05-5.42-6.31-5-6.71.79-12.46,3.14-15.78,9.67s-6.84,13-10.42,19.37a31.27,31.27,0,0,1-4.47,6.22,3.79,3.79,0,0,1-3.47.46,3.84,3.84,0,0,1-2.08-2.87,45.66,45.66,0,0,1,1.65-8.8q2.81-9.93,6-19.75a55,55,0,0,1,3.62-8.26c1.55-2.95,4.31-3.76,7.53-4.15a103.87,103.87,0,0,0,16.51-2.89C379.55,16.14,386.36,16.15,391.72,23.23Z" transform="translate(-21 -6.79)"/><path class="cls-1" d="M258.16,40.81c-3.86-3.75-8.23-3.45-12.63-.54-4.84,3.19-7.79,7.88-10.3,13-2.64,5.42-5.85,10.56-9,15.73a10.1,10.1,0,0,1-3.52,3.7c-1.33.7-3.53,1.09-4.68.44A5.42,5.42,0,0,1,216,69c.07-2.07,1-4.15,1.76-6.16.89-2.42,2.25-4.71,2.88-7.19.75-2.95.91-6-1.85-8.33-1.8-1.48-4.93,0-7.07,3.94-2.26,4.16-4,8.62-6.08,12.88a39.78,39.78,0,0,1-4.54,7.74A5.11,5.11,0,0,1,196.58,73a5.39,5.39,0,0,1-3-3.68,17.45,17.45,0,0,1,.53-7.61c2.94-9,6.3-17.92,9.32-26.93,1.24-3.66,3.44-5.83,7.28-6.43,8.11-1.26,16.43-4.21,22.47,4.29,3.36-1.72,5.52-3.15,7.89-4,3.62-1.25,7.35-2.79,11.08-2.94,14.88-.59,20.49,6.08,17.9,20.89a105.19,105.19,0,0,1-3.49,15.14c-1.69,5.1-5,9-10.78,10.15-4.59.9-8.09-2.42-6.6-6.72,1.4-4.07,3.46-7.9,5.19-11.85,1.39-3.16,2.78-6.32,4-9.53C258.63,43.13,258.27,42.17,258.16,40.81Z" transform="translate(-21 -6.79)"/><path class="cls-1" d="M112.72,53.72c4.44,5.06,9.65,8,14.34,11.62,3.2,2.46,3.58,6,1.25,9.07a4.65,4.65,0,0,1-5.75,1.49,5.17,5.17,0,0,1-2.09-1.47c-4.24-5.13-9.9-8.2-15.69-11.16a24.66,24.66,0,0,1-5.28-3.66c-4.11-3.75-3.94-8.73.59-12.14,2.37-1.78,5.26-2.88,7.86-4.37,4.1-2.35,8.22-4.7,12.21-7.22,1.43-.9,3-2.09,3.67-3.53.94-2.23,1.8-4.92,1.41-7.19-.46-2.7-3.18-3.84-5.92-4.17-5.63-.69-10.51,1.18-13.64,5.69A158.16,158.16,0,0,0,94.49,45.46c-2.11,4.18-3.07,8.95-4.56,13.46a60.48,60.48,0,0,1-2.53,7.3c-1.14,2.35-2.86,4.34-5.9,4.31-2.35,0-3.72-2.89-3.09-7.35A56.45,56.45,0,0,1,80.72,51.8c4.08-11.29,7.43-22.91,15.33-32.48C101.26,13,108.34,10,115.53,7.13a7.26,7.26,0,0,1,5,.24C130,11.44,135.33,18.85,137,29a11,11,0,0,1-3,9.58,81.62,81.62,0,0,1-10.69,9.21C120.26,50,116.74,51.49,112.72,53.72Z" transform="translate(-21 -6.79)"/><path class="cls-1" d="M78.72,22.65c-10.91-1.19-15.59-.43-23.6,4a20.85,20.85,0,0,0-4.13,3,5.11,5.11,0,0,0,1.13,8.62c2.65,1.4,5.64,2.21,8.21,3.73,1.32.77,3.13,2.88,2.83,3.75-.6,1.75-2.25,4-3.87,4.37a68.68,68.68,0,0,1-12.74,1.65c-5.52.31-8.76,3-10,8.34-.88,3.77-1.58,7.6-2.67,11.31-1.23,4.21-3.29,8-7.45,10.06a4.43,4.43,0,0,1-3.6-.1A4.36,4.36,0,0,1,21,78.32a20.26,20.26,0,0,1,.79-5.06c.69-3.37,2.28-6.8,2-10.08-1-11.16,3.7-21.06,6.14-31.45,2-8.6,9-13.35,14.76-19.06a2.1,2.1,0,0,1,1.14-.57C54.29,11,62.73,9.47,71.22,9c5.34-.28,8.88,4.37,9.12,10.43C80.38,20.52,79.26,21.64,78.72,22.65Z" transform="translate(-21 -6.79)"/><path class="cls-1" d="M687.14,56.63c2.17,5.31,3.92,9.19,5.27,13.21.3.89-.54,2.61-1.39,3.3s-2.69,1.18-3.52.72a27.4,27.4,0,0,1-6.07-4.59c-4.8-4.81-9.24-10-14.2-14.16-6.09,3.08-2.57,13.08-11.35,13.23-.48-1.52-1.22-2.72-1.18-3.89.57-16.35,6.36-30.4,19.35-40.72a38.86,38.86,0,0,1,29.18-8.21c5,.53,7.75,3.4,8.5,8.31s.2,9.46-2.7,13.62a47,47,0,0,1-12.74,12.74C693.45,52,690.73,54.09,687.14,56.63Zm-19.27-9.2c10.43-.42,17.46-2.11,23.62-6.11,3.14-2,5.65-5.21,8-8.24.75-1,.38-3.3-.22-4.69-.34-.8-2.2-1.39-3.33-1.33C683.55,27.82,676.24,35.7,667.87,47.43Z" transform="translate(-21 -6.79)"/><path class="cls-1" d="M467.88,38.61c4.52,4.62,13.74.89,16.17,10-5.38,1.23-10.39,2.1-15.21,3.58a53.86,53.86,0,0,0-10.51,4.66c-2.24,1.26-1.57,5.79.87,6.41,2.9.74,5.95.86,8.89,1.49a46.33,46.33,0,0,1,8.65,2.39c2.83,1.21,4,4.84,3,7.75a5.7,5.7,0,0,1-5.89,4.19q-12.28-.65-24.53-1.79c-4.84-.46-7.18-3.55-5.43-8.16,5.35-14.12,9-28.95,16.56-42.18,1.23-2.16,3-4.51,5.12-5.59,7.88-4,16.62-4.56,25.25-4.7,3.72-.06,6.13,2.8,7.36,6.37,1,3.05-1.17,6.57-4.29,6.45s-6-.85-9-.9a41.5,41.5,0,0,0-10.29.65C470,30.39,467.28,33.49,467.88,38.61Z" transform="translate(-21 -6.79)"/><path class="cls-1" d="M137.65,54.68c.32-1.81.17-4.66,1.32-6.82,4.44-8.34,9.31-16.51,18.7-20.29,5.17-2.09,10.42-4,15.76-5.68,3.72-1.14,6.86.54,8.36,4.14,2.32,5.54,4.4,11.18,6.63,16.75,2.93,7.28,1.33,14.26-4.16,18.91-7.77,6.58-15.93,12.88-27,14.09-6.43.7-10.88-1-14.44-6A26.82,26.82,0,0,1,137.65,54.68Zm39.29-6.91c0-4.9-3.66-10.48-8.09-12.06-3.94-1.4-6.51,1.37-9,3.56-2.85,2.52-5.83,5.16-7.77,8.34a23,23,0,0,0-2.77,9.57c-.4,4,2.82,6.95,6.41,5.8a126.85,126.85,0,0,0,16.45-6.7C175.46,54.7,176.87,51.45,176.94,47.77Z" transform="translate(-21 -6.79)"/><path class="cls-1" d="M743.87,50.22C738.86,43,734.66,37,730.57,31c-3-4.39-4.67-9.32-4.11-14.59a6.53,6.53,0,0,1,3.67-4.58c1.58-.51,4.75.35,5.55,1.65,2.23,3.6,3.66,7.7,5.28,11.66,3.13,7.64,3.59,8.26,11.66,13.84,1.55-1.75,3.31-3.46,4.77-5.4C762.28,27,767,20.37,772,13.92a13.46,13.46,0,0,1,5-4,5.36,5.36,0,0,1,4.66.43,5,5,0,0,1,1.24,4.5,24.74,24.74,0,0,1-4.75,7.46c-4.18,4.42-8,9-10.11,14.79-.44,1.2-.82,2.72-1.74,3.4-7.17,5.33-10,13.87-15.34,20.55-3.46,4.31-5.92,9.41-8.92,14.11-1.36,2.14-2.57,4.67-4.54,6-1.42,1-4.17.88-6,.26a3.93,3.93,0,0,1-2.13-5.4,86.3,86.3,0,0,1,5.36-10.21C737.74,60.74,741.74,56.15,743.87,50.22Z" transform="translate(-21 -6.79)"/><path class="cls-1" d="M630,26.87c12.24.58,16,5.06,14.31,17-2,13.87-13.63,27.14-26.83,30a31.17,31.17,0,0,1-11.47.33c-10.19-1.69-14.53-8.38-12.74-18.66.07-.42.15-.85.24-1.27C596.8,40.08,615.33,26.17,630,26.87Zm-15,34.9c8.78-.05,17.64-8.17,18-17,.08-1.69-1.55-4.43-3-5-2.64-1.06-6.11-1.79-8.68-1-5.76,1.86-11,5-14.54,10.29-1.74,2.57-3.28,5.29-1.87,8.42s4.38,3.94,7.51,4.23C613.27,61.84,614.14,61.77,615,61.77Z" transform="translate(-21 -6.79)"/></svg>