<?xml version="1.0" encoding="utf-8"?>
<!-- Generator: Adobe Illustrator 16.0.4, SVG Export Plug-In . SVG Version: 6.00 Build 0)  -->
<!DOCTYPE svg PUBLIC "-//W3C//DTD SVG 1.1//EN" "http://www.w3.org/Graphics/SVG/1.1/DTD/svg11.dtd">
<svg version="1.1" id="Layer_1" xmlns="http://www.w3.org/2000/svg" xmlns:xlink="http://www.w3.org/1999/xlink" x="0px" y="0px"
	 width="60px" height="60px" viewBox="0 0 60 60" enable-background="new 0 0 60 60" xml:space="preserve">
<path d="M30,0.3C13.597,0.3,0.3,13.597,0.3,30c0,16.404,13.297,29.7,29.7,29.7c16.404,0,29.7-13.296,29.7-29.7
	C59.7,13.597,46.404,0.3,30,0.3z M30.002,41.437c-2.509,0-4.884-0.462-7.012-1.287c-0.277-0.106-0.551-0.221-0.818-0.338
	c-0.454-0.205-7.528,6.252-7.209,5.836c2.276-2.986,3.868-7.172,3.452-8.134c-0.283-0.649-0.554-0.807-0.571-0.822
	c-2.978-2.454-4.3-5.064-4.3-8.808c0-7.484,7.369-13.551,16.456-13.551c9.088,0,16.458,6.067,16.458,13.551
	C46.457,35.369,39.087,41.437,30.002,41.437z"/>
</svg>
