<?xml version="1.0" encoding="utf-8"?>
<!-- Generator: Adobe Illustrator 16.0.4, SVG Export Plug-In . SVG Version: 6.00 Build 0)  -->
<!DOCTYPE svg PUBLIC "-//W3C//DTD SVG 1.1//EN" "http://www.w3.org/Graphics/SVG/1.1/DTD/svg11.dtd">
<svg version="1.1" id="Layer_1" xmlns="http://www.w3.org/2000/svg" xmlns:xlink="http://www.w3.org/1999/xlink" x="0px" y="0px"
	 width="60px" height="60px" viewBox="0 0 60 60" enable-background="new 0 0 60 60" xml:space="preserve">
<path d="M30,0.3C13.597,0.3,0.3,13.597,0.3,30c0,16.404,13.297,29.7,29.7,29.7c16.404,0,29.7-13.296,29.7-29.7
	C59.7,13.597,46.404,0.3,30,0.3z M33.137,24.583l7.117-0.009l-0.918,7.189l-6.191,0.007l0.022,18.441l-7.421,0.011l-0.024-18.442
	l-6.206,0.009l-0.009-7.189l6.207-0.008l-0.007-5.3c-0.008-6.152,3.745-9.506,9.234-9.513c2.627-0.003,4.889,0.19,5.544,0.276
	l0.009,6.429l-3.805,0.006c-2.983,0.004-3.559,1.422-3.559,3.504L33.137,24.583z"/>
</svg>
