<?xml version="1.0" encoding="utf-8"?>
<!-- Generator: Adobe Illustrator 16.0.4, SVG Export Plug-In . SVG Version: 6.00 Build 0)  -->
<!DOCTYPE svg PUBLIC "-//W3C//DTD SVG 1.1//EN" "http://www.w3.org/Graphics/SVG/1.1/DTD/svg11.dtd">
<svg version="1.1" id="Layer_1" xmlns="http://www.w3.org/2000/svg" xmlns:xlink="http://www.w3.org/1999/xlink" x="0px" y="0px"
	 width="60px" height="60px" viewBox="0 0 60 60" enable-background="new 0 0 60 60" xml:space="preserve">
<path d="M30,0.3C13.597,0.3,0.3,13.597,0.3,30c0,16.404,13.297,29.7,29.7,29.7c16.404,0,29.7-13.296,29.7-29.7
	C59.7,13.597,46.404,0.3,30,0.3z M44.87,21.92c0.014,0.336,0.023,0.673,0.023,1.013c0,10.343-7.874,22.27-22.271,22.27
	c-4.42,0-8.534-1.295-11.998-3.517c0.612,0.072,1.235,0.109,1.867,0.109c3.667,0,7.042-1.252,9.722-3.351
	c-3.426-0.062-6.316-2.326-7.312-5.436c0.478,0.091,0.968,0.141,1.473,0.141c0.714,0,1.405-0.096,2.062-0.275
	c-3.58-0.719-6.278-3.882-6.278-7.675c0-0.032,0-0.065,0.001-0.099c1.055,0.587,2.262,0.939,3.545,0.979
	c-2.1-1.403-3.482-3.799-3.482-6.515c0-1.435,0.387-2.779,1.06-3.936c3.861,4.736,9.629,7.852,16.134,8.179
	c-0.134-0.573-0.203-1.17-0.203-1.784c0-4.322,3.506-7.826,7.829-7.826c2.25,0,4.286,0.95,5.713,2.471
	c1.782-0.35,3.458-1.002,4.97-1.899c-0.584,1.828-1.825,3.362-3.44,4.331c1.583-0.189,3.091-0.61,4.495-1.232
	C47.727,19.438,46.399,20.816,44.87,21.92z"/>
</svg>
